SplineFontDB: 3.0
FontName: ChronolabsCooperativeBoldSixDotBraille
FullName: Bold Six Dot Braille
FamilyName: Braille
Weight: Bold
Copyright: (c) Chronolabs Cooperative, 2007-2018
Version: August 11, 2018; 1;75
DefaultBaseFilename: Bold Six Dot Braille
ItalicAngle: 0
UnderlinePosition: -125
UnderlineWidth: 50
Ascent: 800
Descent: 200
InvalidEm: 0
sfntRevision: 0x0001c000
LayerCount: 2
Layer: 0 1 "Back" 1
Layer: 1 1 "Fore" 0
XUID: [1021 919 -1506798913 4788827]
StyleMap: 0x0040
FSType: 0
OS2Version: 0
OS2_WeightWidthSlopeOnly: 0
OS2_UseTypoMetrics: 0
CreationTime: 894279572
ModificationTime: 1533957000
PfmFamily: 81
TTFWeight: 700
TTFWidth: 5
LineGap: 30
VLineGap: 0
Panose: 0 0 0 0 0 0 0 0 0 0
OS2TypoAscent: 750
OS2TypoAOffset: 0
OS2TypoDescent: -170
OS2TypoDOffset: 0
OS2TypoLinegap: 30
OS2WinAscent: 998
OS2WinAOffset: 0
OS2WinDescent: 194
OS2WinDOffset: 0
HheadAscent: 750
HheadAOffset: 0
HheadDescent: -170
HheadDOffset: 0
OS2SubXSize: 100
OS2SubYSize: 100
OS2SubXOff: 0
OS2SubYOff: 140
OS2SupXSize: 100
OS2SupYSize: 100
OS2SupXOff: 0
OS2SupYOff: 140
OS2StrikeYSize: 50
OS2StrikeYPos: 250
OS2Vendor: 'CC  '
OS2UnicodeRanges: 00000003.00000000.00000000.00000000
MarkAttachClasses: 1
DEI: 91125
TtTable: prep
PUSHW_1
 0
CALL
PUSHW_3
 0
 2
 7
CALL
EndTTInstrs
TtTable: fpgm
PUSHW_1
 0
FDEF
MPPEM
PUSHW_1
 9
LT
IF
PUSHB_2
 1
 1
INSTCTRL
EIF
PUSHW_1
 511
SCANCTRL
PUSHW_1
 132
SCVTCI
ENDF
PUSHW_1
 1
FDEF
DUP
DUP
RCVT
ROUND[Black]
WCVTP
PUSHB_1
 1
ADD
ENDF
PUSHW_1
 2
FDEF
PUSHW_1
 1
LOOPCALL
POP
ENDF
PUSHW_1
 3
FDEF
DUP
GC[cur]
PUSHB_1
 3
CINDEX
GC[cur]
GT
IF
SWAP
EIF
DUP
ROLL
DUP
ROLL
MD[grid]
ABS
ROLL
DUP
GC[cur]
DUP
ROUND[Grey]
SUB
ABS
PUSHB_1
 4
CINDEX
GC[cur]
DUP
ROUND[Grey]
SUB
ABS
GT
IF
SWAP
NEG
ROLL
EIF
MDAP[rnd]
DUP
PUSHB_1
 0
GTEQ
IF
ROUND[Black]
DUP
PUSHB_1
 0
EQ
IF
POP
PUSHB_1
 64
EIF
ELSE
ROUND[Black]
DUP
PUSHB_1
 0
EQ
IF
POP
PUSHB_1
 64
NEG
EIF
EIF
MSIRP[no-rp0]
ENDF
PUSHW_1
 4
FDEF
DUP
GC[cur]
PUSHB_1
 4
CINDEX
GC[cur]
GT
IF
SWAP
ROLL
EIF
DUP
GC[cur]
DUP

StartChar: .notdef
Encoding: 65536 -1 0
Width: 805
Flags: W
LayerCount: 2
Fore
SplineSet
104 978 m 1,0,-1
 104 998 l 1,1,-1
 604 998 l 1,2,-1
 604 978 l 1,3,-1
 104 978 l 1,0,-1
104 -194 m 1,4,-1
 104 -174 l 1,5,-1
 604 -174 l 1,6,-1
 604 -194 l 1,7,-1
 104 -194 l 1,4,-1
EndSplineSet
EndChar

StartChar: zcaron
Encoding: 31 31 1
Width: 601
Flags: W
LayerCount: 2
Fore
SplineSet
157 187 m 0,0,1
 112 188 112 188 84.5 215 c 128,-1,2
 57 242 57 242 57 287 c 256,3,4
 57 332 57 332 84.5 359.5 c 128,-1,5
 112 387 112 387 157 387 c 256,6,7
 202 387 202 387 229.5 359.5 c 128,-1,8
 257 332 257 332 257 287 c 256,9,10
 257 242 257 242 229.5 214.5 c 128,-1,11
 202 187 202 187 157 187 c 0,0,1
157 -113 m 0,12,13
 112 -112 112 -112 84.5 -85 c 128,-1,14
 57 -58 57 -58 57 -13 c 256,15,16
 57 32 57 32 84.5 59 c 128,-1,17
 112 86 112 86 157 86 c 256,18,19
 202 86 202 86 229.5 59 c 128,-1,20
 257 32 257 32 257 -13 c 256,21,22
 257 -58 257 -58 229.5 -85.5 c 128,-1,23
 202 -113 202 -113 157 -113 c 0,12,13
457 487 m 0,24,25
 412 488 412 488 384.5 515 c 128,-1,26
 357 542 357 542 357 587 c 256,27,28
 357 632 357 632 384.5 659.5 c 128,-1,29
 412 687 412 687 457 687 c 256,30,31
 502 687 502 687 529.5 659.5 c 128,-1,32
 557 632 557 632 557 587 c 256,33,34
 557 542 557 542 529.5 514.5 c 128,-1,35
 502 487 502 487 457 487 c 0,24,25
457 187 m 0,36,37
 412 188 412 188 384.5 215 c 128,-1,38
 357 242 357 242 357 287 c 256,39,40
 357 332 357 332 384.5 359.5 c 128,-1,41
 412 387 412 387 457 387 c 256,42,43
 502 387 502 387 529.5 359.5 c 128,-1,44
 557 332 557 332 557 287 c 256,45,46
 557 242 557 242 529.5 214.5 c 128,-1,47
 502 187 502 187 457 187 c 0,36,37
457 -112 m 0,48,49
 412 -111 412 -111 384.5 -84 c 128,-1,50
 357 -57 357 -57 357 -12 c 256,51,52
 357 33 357 33 384.5 60 c 128,-1,53
 412 87 412 87 457 87 c 256,54,55
 502 87 502 87 529.5 60 c 128,-1,56
 557 33 557 33 557 -12 c 256,57,58
 557 -57 557 -57 529.5 -84.5 c 128,-1,59
 502 -112 502 -112 457 -112 c 0,48,49
157 487 m 0,60,61
 112 488 112 488 84.5 515 c 128,-1,62
 57 542 57 542 57 587 c 256,63,64
 57 632 57 632 84.5 659.5 c 128,-1,65
 112 687 112 687 157 687 c 256,66,67
 202 687 202 687 229.5 659.5 c 128,-1,68
 257 632 257 632 257 587 c 256,69,70
 257 542 257 542 229.5 514.5 c 128,-1,71
 202 487 202 487 157 487 c 0,60,61
EndSplineSet
EndChar

StartChar: exclam
Encoding: 33 33 3
Width: 802
Flags: W
LayerCount: 2
Fore
SplineSet
204 395 m 0,0,1
 249 395 249 395 276.5 422.5 c 128,-1,2
 304 450 304 450 304 495 c 256,3,4
 304 540 304 540 276.5 567.5 c 128,-1,5
 249 595 249 595 204 595 c 256,6,7
 159 595 159 595 131.5 567.5 c 128,-1,8
 104 540 104 540 104 495 c 256,9,10
 104 450 104 450 131.5 423 c 128,-1,11
 159 396 159 396 204 395 c 0,0,1
204 97 m 0,12,13
 249 97 249 97 276.5 124.5 c 128,-1,14
 304 152 304 152 304 197 c 256,15,16
 304 242 304 242 276.5 268 c 128,-1,17
 249 294 249 294 204 294 c 256,18,19
 159 294 159 294 131.5 268 c 128,-1,20
 104 242 104 242 104 197 c 256,21,22
 104 152 104 152 131.5 125 c 128,-1,23
 159 98 159 98 204 97 c 0,12,13
504 395 m 0,24,25
 549 395 549 395 576.5 422.5 c 128,-1,26
 604 450 604 450 604 495 c 256,27,28
 604 540 604 540 576.5 567.5 c 128,-1,29
 549 595 549 595 504 595 c 256,30,31
 459 595 459 595 431.5 567.5 c 128,-1,32
 404 540 404 540 404 495 c 256,33,34
 404 450 404 450 431.5 423 c 128,-1,35
 459 396 459 396 504 395 c 0,24,25
EndSplineSet
EndChar

StartChar: dollar
Encoding: 36 36 4
Width: 802
Flags: W
LayerCount: 2
Fore
SplineSet
203 99 m 0,0,1
 248 99 248 99 275.5 126.5 c 128,-1,2
 303 154 303 154 303 199 c 256,3,4
 303 244 303 244 275.5 269 c 128,-1,5
 248 294 248 294 203 294 c 256,6,7
 158 294 158 294 130.5 269 c 128,-1,8
 103 244 103 244 103 199 c 256,9,10
 103 154 103 154 130.5 127 c 128,-1,11
 158 100 158 100 203 99 c 0,0,1
503 695 m 0,12,13
 548 695 548 695 575.5 722.5 c 128,-1,14
 603 750 603 750 603 795 c 256,15,16
 603 840 603 840 575.5 867.5 c 128,-1,17
 548 895 548 895 503 895 c 256,18,19
 458 895 458 895 430.5 867.5 c 128,-1,20
 403 840 403 840 403 795 c 256,21,22
 403 750 403 750 430.5 723 c 128,-1,23
 458 696 458 696 503 695 c 0,12,13
503 395 m 0,24,25
 548 395 548 395 575.5 422.5 c 128,-1,26
 603 450 603 450 603 495 c 256,27,28
 603 540 603 540 575.5 567.5 c 128,-1,29
 548 595 548 595 503 595 c 256,30,31
 458 595 458 595 430.5 567.5 c 128,-1,32
 403 540 403 540 403 495 c 256,33,34
 403 450 403 450 430.5 423 c 128,-1,35
 458 396 458 396 503 395 c 0,24,25
503 100 m 0,36,37
 548 100 548 100 575.5 127.5 c 128,-1,38
 603 155 603 155 603 200 c 256,39,40
 603 245 603 245 575.5 270 c 128,-1,41
 548 295 548 295 503 295 c 256,42,43
 458 295 458 295 430.5 270 c 128,-1,44
 403 245 403 245 403 200 c 256,45,46
 403 155 403 155 430.5 128 c 128,-1,47
 458 101 458 101 503 100 c 0,36,37
EndSplineSet
EndChar

StartChar: quotesingle
Encoding: 39 39 5
Width: 805
Flags: W
LayerCount: 2
Fore
SplineSet
205 96 m 0,0,1
 160 97 160 97 132.5 123.5 c 128,-1,2
 105 150 105 150 105 195 c 256,3,4
 105 240 105 240 132.5 265.5 c 128,-1,5
 160 291 160 291 205 291 c 256,6,7
 250 291 250 291 277.5 265.5 c 128,-1,8
 305 240 305 240 305 195 c 256,9,10
 305 150 305 150 277.5 123 c 128,-1,11
 250 96 250 96 205 96 c 0,0,1
EndSplineSet
EndChar

StartChar: asterisk
Encoding: 42 42 6
Width: 802
Flags: W
LayerCount: 2
Fore
SplineSet
504 691 m 0,0,1
 549 691 549 691 576.5 718.5 c 128,-1,2
 604 746 604 746 604 791 c 256,3,4
 604 836 604 836 576.5 863.5 c 128,-1,5
 549 891 549 891 504 891 c 256,6,7
 459 891 459 891 431.5 863.5 c 128,-1,8
 404 836 404 836 404 791 c 256,9,10
 404 746 404 746 431.5 719 c 128,-1,11
 459 692 459 692 504 691 c 0,0,1
504 96 m 0,12,13
 549 96 549 96 576.5 123.5 c 128,-1,14
 604 151 604 151 604 196 c 256,15,16
 604 241 604 241 576.5 266 c 128,-1,17
 549 291 549 291 504 291 c 256,18,19
 459 291 459 291 431.5 266 c 128,-1,20
 404 241 404 241 404 196 c 256,21,22
 404 151 404 151 431.5 124 c 128,-1,23
 459 97 459 97 504 96 c 0,12,13
EndSplineSet
EndChar

StartChar: plus
Encoding: 43 43 7
Width: 798
Flags: W
LayerCount: 2
Fore
SplineSet
204 402 m 0,0,1
 249 402 249 402 276.5 429.5 c 128,-1,2
 304 457 304 457 304 502 c 256,3,4
 304 547 304 547 276.5 574.5 c 128,-1,5
 249 602 249 602 204 602 c 256,6,7
 159 602 159 602 131.5 574.5 c 128,-1,8
 104 547 104 547 104 502 c 256,9,10
 104 457 104 457 131.5 430 c 128,-1,11
 159 403 159 403 204 402 c 0,0,1
204 104 m 0,12,13
 249 104 249 104 276.5 131.5 c 128,-1,14
 304 159 304 159 304 204 c 256,15,16
 304 249 304 249 276.5 275 c 128,-1,17
 249 301 249 301 204 301 c 256,18,19
 159 301 159 301 131.5 275 c 128,-1,20
 104 249 104 249 104 204 c 256,21,22
 104 159 104 159 131.5 132 c 128,-1,23
 159 105 159 105 204 104 c 0,12,13
504 402 m 0,24,25
 549 402 549 402 576.5 429.5 c 128,-1,26
 604 457 604 457 604 502 c 256,27,28
 604 547 604 547 576.5 574.5 c 128,-1,29
 549 602 549 602 504 602 c 256,30,31
 459 602 459 602 431.5 574.5 c 128,-1,32
 404 547 404 547 404 502 c 256,33,34
 404 457 404 457 431.5 430 c 128,-1,35
 459 403 459 403 504 402 c 0,24,25
EndSplineSet
EndChar

StartChar: comma
Encoding: 44 44 8
Width: 802
Flags: W
LayerCount: 2
Fore
SplineSet
200 402 m 0,0,1
 245 402 245 402 272.5 429.5 c 128,-1,2
 300 457 300 457 300 502 c 256,3,4
 300 547 300 547 272.5 574.5 c 128,-1,5
 245 602 245 602 200 602 c 256,6,7
 155 602 155 602 127.5 574.5 c 128,-1,8
 100 547 100 547 100 502 c 256,9,10
 100 457 100 457 127.5 430 c 128,-1,11
 155 403 155 403 200 402 c 0,0,1
EndSplineSet
EndChar

StartChar: minus
Encoding: 45 45 9
Width: 802
Flags: W
LayerCount: 2
Fore
SplineSet
204 100 m 0,0,1
 249 100 249 100 276.5 127.5 c 128,-1,2
 304 155 304 155 304 200 c 256,3,4
 304 245 304 245 276.5 271 c 128,-1,5
 249 297 249 297 204 297 c 256,6,7
 159 297 159 297 131.5 271 c 128,-1,8
 104 245 104 245 104 200 c 256,9,10
 104 155 104 155 131.5 128 c 128,-1,11
 159 101 159 101 204 100 c 0,0,1
504 101 m 0,12,13
 549 101 549 101 576.5 128.5 c 128,-1,14
 604 156 604 156 604 201 c 256,15,16
 604 246 604 246 576.5 272 c 128,-1,17
 549 298 549 298 504 298 c 256,18,19
 459 298 459 298 431.5 272 c 128,-1,20
 404 246 404 246 404 201 c 256,21,22
 404 156 404 156 431.5 129 c 128,-1,23
 459 102 459 102 504 101 c 0,12,13
EndSplineSet
EndChar

StartChar: period
Encoding: 46 46 10
Width: 798
Flags: W
LayerCount: 2
Fore
SplineSet
204 399 m 0,0,1
 249 399 249 399 276.5 426.5 c 128,-1,2
 304 454 304 454 304 499 c 256,3,4
 304 544 304 544 276.5 571.5 c 128,-1,5
 249 599 249 599 204 599 c 256,6,7
 159 599 159 599 131.5 571.5 c 128,-1,8
 104 544 104 544 104 499 c 256,9,10
 104 454 104 454 131.5 427 c 128,-1,11
 159 400 159 400 204 399 c 0,0,1
504 399 m 0,12,13
 549 399 549 399 576.5 426.5 c 128,-1,14
 604 454 604 454 604 499 c 256,15,16
 604 544 604 544 576.5 571.5 c 128,-1,17
 549 599 549 599 504 599 c 256,18,19
 459 599 459 599 431.5 571.5 c 128,-1,20
 404 544 404 544 404 499 c 256,21,22
 404 454 404 454 431.5 427 c 128,-1,23
 459 400 459 400 504 399 c 0,12,13
504 102 m 0,24,25
 549 102 549 102 576.5 129.5 c 128,-1,26
 604 157 604 157 604 202 c 256,27,28
 604 247 604 247 576.5 273 c 128,-1,29
 549 299 549 299 504 299 c 256,30,31
 459 299 459 299 431.5 273 c 128,-1,32
 404 247 404 247 404 202 c 256,33,34
 404 157 404 157 431.5 130 c 128,-1,35
 459 103 459 103 504 102 c 0,24,25
EndSplineSet
EndChar

StartChar: zero
Encoding: 48 48 11
Width: 798
Flags: W
LayerCount: 2
Fore
SplineSet
204 398 m 0,0,1
 249 398 249 398 276.5 425.5 c 128,-1,2
 304 453 304 453 304 498 c 256,3,4
 304 543 304 543 276.5 570.5 c 128,-1,5
 249 598 249 598 204 598 c 256,6,7
 159 598 159 598 131.5 570.5 c 128,-1,8
 104 543 104 543 104 498 c 256,9,10
 104 453 104 453 131.5 426 c 128,-1,11
 159 399 159 399 204 398 c 0,0,1
504 698 m 0,12,13
 549 698 549 698 576.5 725.5 c 128,-1,14
 604 753 604 753 604 798 c 256,15,16
 604 843 604 843 576.5 870.5 c 128,-1,17
 549 898 549 898 504 898 c 256,18,19
 459 898 459 898 431.5 870.5 c 128,-1,20
 404 843 404 843 404 798 c 256,21,22
 404 753 404 753 431.5 726 c 128,-1,23
 459 699 459 699 504 698 c 0,12,13
504 398 m 0,24,25
 549 398 549 398 576.5 425.5 c 128,-1,26
 604 453 604 453 604 498 c 256,27,28
 604 543 604 543 576.5 570.5 c 128,-1,29
 549 598 549 598 504 598 c 256,30,31
 459 598 459 598 431.5 570.5 c 128,-1,32
 404 543 404 543 404 498 c 256,33,34
 404 453 404 453 431.5 426 c 128,-1,35
 459 399 459 399 504 398 c 0,24,25
EndSplineSet
EndChar

StartChar: one
Encoding: 49 49 12
Width: 805
Flags: W
LayerCount: 2
Fore
SplineSet
204 702 m 0,0,1
 249 702 249 702 276.5 729.5 c 128,-1,2
 304 757 304 757 304 802 c 256,3,4
 304 847 304 847 276.5 874.5 c 128,-1,5
 249 902 249 902 204 902 c 256,6,7
 159 902 159 902 131.5 874.5 c 128,-1,8
 104 847 104 847 104 802 c 256,9,10
 104 757 104 757 131.5 730 c 128,-1,11
 159 703 159 703 204 702 c 0,0,1
EndSplineSet
EndChar

StartChar: two
Encoding: 50 50 13
Width: 802
Flags: W
LayerCount: 2
Fore
SplineSet
204 398 m 0,0,1
 249 398 249 398 276.5 425.5 c 128,-1,2
 304 453 304 453 304 498 c 256,3,4
 304 543 304 543 276.5 570.5 c 128,-1,5
 249 598 249 598 204 598 c 256,6,7
 159 598 159 598 131.5 570.5 c 128,-1,8
 104 543 104 543 104 498 c 256,9,10
 104 453 104 453 131.5 426 c 128,-1,11
 159 399 159 399 204 398 c 0,0,1
204 698 m 0,12,13
 249 698 249 698 276.5 725.5 c 128,-1,14
 304 753 304 753 304 798 c 256,15,16
 304 843 304 843 276.5 870.5 c 128,-1,17
 249 898 249 898 204 898 c 256,18,19
 159 898 159 898 131.5 870.5 c 128,-1,20
 104 843 104 843 104 798 c 256,21,22
 104 753 104 753 131.5 726 c 128,-1,23
 159 699 159 699 204 698 c 0,12,13
EndSplineSet
EndChar

StartChar: three
Encoding: 51 51 14
Width: 802
Flags: W
LayerCount: 2
Fore
SplineSet
500 699 m 0,0,1
 545 699 545 699 572.5 726.5 c 128,-1,2
 600 754 600 754 600 799 c 256,3,4
 600 844 600 844 572.5 871.5 c 128,-1,5
 545 899 545 899 500 899 c 256,6,7
 455 899 455 899 427.5 871.5 c 128,-1,8
 400 844 400 844 400 799 c 256,9,10
 400 754 400 754 427.5 727 c 128,-1,11
 455 700 455 700 500 699 c 0,0,1
200 699 m 0,12,13
 245 699 245 699 272.5 726.5 c 128,-1,14
 300 754 300 754 300 799 c 256,15,16
 300 844 300 844 272.5 871.5 c 128,-1,17
 245 899 245 899 200 899 c 256,18,19
 155 899 155 899 127.5 871.5 c 128,-1,20
 100 844 100 844 100 799 c 256,21,22
 100 754 100 754 127.5 727 c 128,-1,23
 155 700 155 700 200 699 c 0,12,13
EndSplineSet
EndChar

StartChar: four
Encoding: 52 52 15
Width: 805
Flags: W
LayerCount: 2
Fore
SplineSet
500 702 m 0,0,1
 545 702 545 702 572.5 729.5 c 128,-1,2
 600 757 600 757 600 802 c 256,3,4
 600 847 600 847 572.5 874.5 c 128,-1,5
 545 902 545 902 500 902 c 256,6,7
 455 902 455 902 427.5 874.5 c 128,-1,8
 400 847 400 847 400 802 c 256,9,10
 400 757 400 757 427.5 730 c 128,-1,11
 455 703 455 703 500 702 c 0,0,1
500 402 m 0,12,13
 545 402 545 402 572.5 429.5 c 128,-1,14
 600 457 600 457 600 502 c 256,15,16
 600 547 600 547 572.5 574.5 c 128,-1,17
 545 602 545 602 500 602 c 256,18,19
 455 602 455 602 427.5 574.5 c 128,-1,20
 400 547 400 547 400 502 c 256,21,22
 400 457 400 457 427.5 430 c 128,-1,23
 455 403 455 403 500 402 c 0,12,13
200 702 m 0,24,25
 245 702 245 702 272.5 729.5 c 128,-1,26
 300 757 300 757 300 802 c 256,27,28
 300 847 300 847 272.5 874.5 c 128,-1,29
 245 902 245 902 200 902 c 256,30,31
 155 902 155 902 127.5 874.5 c 128,-1,32
 100 847 100 847 100 802 c 256,33,34
 100 757 100 757 127.5 730 c 128,-1,35
 155 703 155 703 200 702 c 0,24,25
EndSplineSet
EndChar

StartChar: five
Encoding: 53 53 16
Width: 798
Flags: W
LayerCount: 2
Fore
SplineSet
500 402 m 0,0,1
 545 402 545 402 572.5 429.5 c 128,-1,2
 600 457 600 457 600 502 c 256,3,4
 600 547 600 547 572.5 574.5 c 128,-1,5
 545 602 545 602 500 602 c 256,6,7
 455 602 455 602 427.5 574.5 c 128,-1,8
 400 547 400 547 400 502 c 256,9,10
 400 457 400 457 427.5 430 c 128,-1,11
 455 403 455 403 500 402 c 0,0,1
200 702 m 0,12,13
 245 702 245 702 272.5 729.5 c 128,-1,14
 300 757 300 757 300 802 c 256,15,16
 300 847 300 847 272.5 874.5 c 128,-1,17
 245 902 245 902 200 902 c 256,18,19
 155 902 155 902 127.5 874.5 c 128,-1,20
 100 847 100 847 100 802 c 256,21,22
 100 757 100 757 127.5 730 c 128,-1,23
 155 703 155 703 200 702 c 0,12,13
EndSplineSet
EndChar

StartChar: six
Encoding: 54 54 17
Width: 802
Flags: W
LayerCount: 2
Fore
SplineSet
204 402 m 0,0,1
 249 402 249 402 276.5 429.5 c 128,-1,2
 304 457 304 457 304 502 c 256,3,4
 304 547 304 547 276.5 574.5 c 128,-1,5
 249 602 249 602 204 602 c 256,6,7
 159 602 159 602 131.5 574.5 c 128,-1,8
 104 547 104 547 104 502 c 256,9,10
 104 457 104 457 131.5 430 c 128,-1,11
 159 403 159 403 204 402 c 0,0,1
504 702 m 0,12,13
 549 702 549 702 576.5 729.5 c 128,-1,14
 604 757 604 757 604 802 c 256,15,16
 604 847 604 847 576.5 874.5 c 128,-1,17
 549 902 549 902 504 902 c 256,18,19
 459 902 459 902 431.5 874.5 c 128,-1,20
 404 847 404 847 404 802 c 256,21,22
 404 757 404 757 431.5 730 c 128,-1,23
 459 703 459 703 504 702 c 0,12,13
204 702 m 0,24,25
 249 702 249 702 276.5 729.5 c 128,-1,26
 304 757 304 757 304 802 c 256,27,28
 304 847 304 847 276.5 874.5 c 128,-1,29
 249 902 249 902 204 902 c 256,30,31
 159 902 159 902 131.5 874.5 c 128,-1,32
 104 847 104 847 104 802 c 256,33,34
 104 757 104 757 131.5 730 c 128,-1,35
 159 703 159 703 204 702 c 0,24,25
EndSplineSet
EndChar

StartChar: seven
Encoding: 55 55 18
Width: 802
Flags: W
LayerCount: 2
Fore
SplineSet
204 402 m 0,0,1
 249 402 249 402 276.5 429.5 c 128,-1,2
 304 457 304 457 304 502 c 256,3,4
 304 547 304 547 276.5 574.5 c 128,-1,5
 249 602 249 602 204 602 c 256,6,7
 159 602 159 602 131.5 574.5 c 128,-1,8
 104 547 104 547 104 502 c 256,9,10
 104 457 104 457 131.5 430 c 128,-1,11
 159 403 159 403 204 402 c 0,0,1
504 702 m 0,12,13
 549 702 549 702 576.5 729.5 c 128,-1,14
 604 757 604 757 604 802 c 256,15,16
 604 847 604 847 576.5 874.5 c 128,-1,17
 549 902 549 902 504 902 c 256,18,19
 459 902 459 902 431.5 874.5 c 128,-1,20
 404 847 404 847 404 802 c 256,21,22
 404 757 404 757 431.5 730 c 128,-1,23
 459 703 459 703 504 702 c 0,12,13
504 402 m 0,24,25
 549 402 549 402 576.5 429.5 c 128,-1,26
 604 457 604 457 604 502 c 256,27,28
 604 547 604 547 576.5 574.5 c 128,-1,29
 549 602 549 602 504 602 c 256,30,31
 459 602 459 602 431.5 574.5 c 128,-1,32
 404 547 404 547 404 502 c 256,33,34
 404 457 404 457 431.5 430 c 128,-1,35
 459 403 459 403 504 402 c 0,24,25
204 702 m 0,36,37
 249 702 249 702 276.5 729.5 c 128,-1,38
 304 757 304 757 304 802 c 256,39,40
 304 847 304 847 276.5 874.5 c 128,-1,41
 249 902 249 902 204 902 c 256,42,43
 159 902 159 902 131.5 874.5 c 128,-1,44
 104 847 104 847 104 802 c 256,45,46
 104 757 104 757 131.5 730 c 128,-1,47
 159 703 159 703 204 702 c 0,36,37
EndSplineSet
EndChar

StartChar: eight
Encoding: 56 56 19
Width: 798
Flags: W
LayerCount: 2
Fore
SplineSet
200 399 m 0,0,1
 245 399 245 399 272.5 426.5 c 128,-1,2
 300 454 300 454 300 499 c 256,3,4
 300 544 300 544 272.5 571.5 c 128,-1,5
 245 599 245 599 200 599 c 256,6,7
 155 599 155 599 127.5 571.5 c 128,-1,8
 100 544 100 544 100 499 c 256,9,10
 100 454 100 454 127.5 427 c 128,-1,11
 155 400 155 400 200 399 c 0,0,1
500 399 m 0,12,13
 545 399 545 399 572.5 426.5 c 128,-1,14
 600 454 600 454 600 499 c 256,15,16
 600 544 600 544 572.5 571.5 c 128,-1,17
 545 599 545 599 500 599 c 256,18,19
 455 599 455 599 427.5 571.5 c 128,-1,20
 400 544 400 544 400 499 c 256,21,22
 400 454 400 454 427.5 427 c 128,-1,23
 455 400 455 400 500 399 c 0,12,13
200 699 m 0,24,25
 245 699 245 699 272.5 726.5 c 128,-1,26
 300 754 300 754 300 799 c 256,27,28
 300 844 300 844 272.5 871.5 c 128,-1,29
 245 899 245 899 200 899 c 256,30,31
 155 899 155 899 127.5 871.5 c 128,-1,32
 100 844 100 844 100 799 c 256,33,34
 100 754 100 754 127.5 727 c 128,-1,35
 155 700 155 700 200 699 c 0,24,25
EndSplineSet
EndChar

StartChar: nine
Encoding: 57 57 20
Width: 798
Flags: W
LayerCount: 2
Fore
SplineSet
207 399 m 0,0,1
 252 399 252 399 279.5 426.5 c 128,-1,2
 307 454 307 454 307 499 c 256,3,4
 307 544 307 544 279.5 571.5 c 128,-1,5
 252 599 252 599 207 599 c 256,6,7
 162 599 162 599 134.5 571.5 c 128,-1,8
 107 544 107 544 107 499 c 256,9,10
 107 454 107 454 134.5 427 c 128,-1,11
 162 400 162 400 207 399 c 0,0,1
507 699 m 0,12,13
 552 699 552 699 579.5 726.5 c 128,-1,14
 607 754 607 754 607 799 c 256,15,16
 607 844 607 844 579.5 871.5 c 128,-1,17
 552 899 552 899 507 899 c 256,18,19
 462 899 462 899 434.5 871.5 c 128,-1,20
 407 844 407 844 407 799 c 256,21,22
 407 754 407 754 434.5 727 c 128,-1,23
 462 700 462 700 507 699 c 0,12,13
EndSplineSet
EndChar

StartChar: colon
Encoding: 58 58 21
Width: 805
Flags: W
LayerCount: 2
Fore
SplineSet
200 396 m 0,0,1
 245 396 245 396 272.5 423.5 c 128,-1,2
 300 451 300 451 300 496 c 256,3,4
 300 541 300 541 272.5 568.5 c 128,-1,5
 245 596 245 596 200 596 c 256,6,7
 155 596 155 596 127.5 568.5 c 128,-1,8
 100 541 100 541 100 496 c 256,9,10
 100 451 100 451 127.5 424 c 128,-1,11
 155 397 155 397 200 396 c 0,0,1
500 396 m 0,12,13
 545 396 545 396 572.5 423.5 c 128,-1,14
 600 451 600 451 600 496 c 256,15,16
 600 541 600 541 572.5 568.5 c 128,-1,17
 545 596 545 596 500 596 c 256,18,19
 455 596 455 596 427.5 568.5 c 128,-1,20
 400 541 400 541 400 496 c 256,21,22
 400 451 400 451 427.5 424 c 128,-1,23
 455 397 455 397 500 396 c 0,12,13
EndSplineSet
EndChar

StartChar: semicolon
Encoding: 59 59 22
Width: 805
Flags: W
LayerCount: 2
Fore
SplineSet
204 395 m 0,0,1
 249 395 249 395 276.5 422.5 c 128,-1,2
 304 450 304 450 304 495 c 256,3,4
 304 540 304 540 276.5 567.5 c 128,-1,5
 249 595 249 595 204 595 c 256,6,7
 159 595 159 595 131.5 567.5 c 128,-1,8
 104 540 104 540 104 495 c 256,9,10
 104 450 104 450 131.5 423 c 128,-1,11
 159 396 159 396 204 395 c 0,0,1
204 97 m 0,12,13
 249 97 249 97 276.5 124.5 c 128,-1,14
 304 152 304 152 304 197 c 256,15,16
 304 242 304 242 276.5 268 c 128,-1,17
 249 294 249 294 204 294 c 256,18,19
 159 294 159 294 131.5 268 c 128,-1,20
 104 242 104 242 104 197 c 256,21,22
 104 152 104 152 131.5 125 c 128,-1,23
 159 98 159 98 204 97 c 0,12,13
EndSplineSet
EndChar

StartChar: equal
Encoding: 61 61 23
Width: 802
Flags: W
LayerCount: 2
Fore
SplineSet
204 402 m 0,0,1
 249 402 249 402 276.5 429.5 c 128,-1,2
 304 457 304 457 304 502 c 256,3,4
 304 547 304 547 276.5 574.5 c 128,-1,5
 249 602 249 602 204 602 c 256,6,7
 159 602 159 602 131.5 574.5 c 128,-1,8
 104 547 104 547 104 502 c 256,9,10
 104 457 104 457 131.5 430 c 128,-1,11
 159 403 159 403 204 402 c 0,0,1
204 104 m 0,12,13
 249 104 249 104 276.5 131.5 c 128,-1,14
 304 159 304 159 304 204 c 256,15,16
 304 249 304 249 276.5 275 c 128,-1,17
 249 301 249 301 204 301 c 256,18,19
 159 301 159 301 131.5 275 c 128,-1,20
 104 249 104 249 104 204 c 256,21,22
 104 159 104 159 131.5 132 c 128,-1,23
 159 105 159 105 204 104 c 0,12,13
504 402 m 0,24,25
 549 402 549 402 576.5 429.5 c 128,-1,26
 604 457 604 457 604 502 c 256,27,28
 604 547 604 547 576.5 574.5 c 128,-1,29
 549 602 549 602 504 602 c 256,30,31
 459 602 459 602 431.5 574.5 c 128,-1,32
 404 547 404 547 404 502 c 256,33,34
 404 457 404 457 431.5 430 c 128,-1,35
 459 403 459 403 504 402 c 0,24,25
504 105 m 0,36,37
 549 105 549 105 576.5 132.5 c 128,-1,38
 604 160 604 160 604 205 c 256,39,40
 604 250 604 250 576.5 276 c 128,-1,41
 549 302 549 302 504 302 c 256,42,43
 459 302 459 302 431.5 276 c 128,-1,44
 404 250 404 250 404 205 c 256,45,46
 404 160 404 160 431.5 133 c 128,-1,47
 459 106 459 106 504 105 c 0,36,37
EndSplineSet
EndChar

StartChar: question
Encoding: 63 63 24
Width: 798
Flags: W
LayerCount: 2
Fore
SplineSet
197 399 m 0,0,1
 242 399 242 399 269.5 426.5 c 128,-1,2
 297 454 297 454 297 499 c 256,3,4
 297 544 297 544 269.5 571.5 c 128,-1,5
 242 599 242 599 197 599 c 256,6,7
 152 599 152 599 124.5 571.5 c 128,-1,8
 97 544 97 544 97 499 c 256,9,10
 97 454 97 454 124.5 427 c 128,-1,11
 152 400 152 400 197 399 c 0,0,1
497 102 m 0,12,13
 542 102 542 102 569.5 129.5 c 128,-1,14
 597 157 597 157 597 202 c 256,15,16
 597 247 597 247 569.5 273 c 128,-1,17
 542 299 542 299 497 299 c 256,18,19
 452 299 452 299 424.5 273 c 128,-1,20
 397 247 397 247 397 202 c 256,21,22
 397 157 397 157 424.5 130 c 128,-1,23
 452 103 452 103 497 102 c 0,12,13
EndSplineSet
EndChar

StartChar: A
Encoding: 65 65 25
Width: 805
Flags: W
LayerCount: 2
Fore
SplineSet
205 705 m 0,0,1
 250 705 250 705 277.5 732.5 c 128,-1,2
 305 760 305 760 305 805 c 256,3,4
 305 850 305 850 277.5 877.5 c 128,-1,5
 250 905 250 905 205 905 c 256,6,7
 160 905 160 905 132.5 877.5 c 128,-1,8
 105 850 105 850 105 805 c 256,9,10
 105 760 105 760 132.5 733 c 128,-1,11
 160 706 160 706 205 705 c 0,0,1
EndSplineSet
EndChar

StartChar: B
Encoding: 66 66 26
Width: 802
Flags: W
LayerCount: 2
Fore
SplineSet
204 400 m 0,0,1
 249 400 249 400 276.5 427.5 c 128,-1,2
 304 455 304 455 304 500 c 256,3,4
 304 545 304 545 276.5 572.5 c 128,-1,5
 249 600 249 600 204 600 c 256,6,7
 159 600 159 600 131.5 572.5 c 128,-1,8
 104 545 104 545 104 500 c 256,9,10
 104 455 104 455 131.5 428 c 128,-1,11
 159 401 159 401 204 400 c 0,0,1
204 700 m 0,12,13
 249 700 249 700 276.5 727.5 c 128,-1,14
 304 755 304 755 304 800 c 256,15,16
 304 845 304 845 276.5 872.5 c 128,-1,17
 249 900 249 900 204 900 c 256,18,19
 159 900 159 900 131.5 872.5 c 128,-1,20
 104 845 104 845 104 800 c 256,21,22
 104 755 104 755 131.5 728 c 128,-1,23
 159 701 159 701 204 700 c 0,12,13
EndSplineSet
EndChar

StartChar: C
Encoding: 67 67 27
Width: 798
Flags: W
LayerCount: 2
Fore
SplineSet
504 703 m 0,0,1
 549 703 549 703 576.5 730.5 c 128,-1,2
 604 758 604 758 604 803 c 256,3,4
 604 848 604 848 576.5 875.5 c 128,-1,5
 549 903 549 903 504 903 c 256,6,7
 459 903 459 903 431.5 875.5 c 128,-1,8
 404 848 404 848 404 803 c 256,9,10
 404 758 404 758 431.5 731 c 128,-1,11
 459 704 459 704 504 703 c 0,0,1
204 703 m 0,12,13
 249 703 249 703 276.5 730.5 c 128,-1,14
 304 758 304 758 304 803 c 256,15,16
 304 848 304 848 276.5 875.5 c 128,-1,17
 249 903 249 903 204 903 c 256,18,19
 159 903 159 903 131.5 875.5 c 128,-1,20
 104 848 104 848 104 803 c 256,21,22
 104 758 104 758 131.5 731 c 128,-1,23
 159 704 159 704 204 703 c 0,12,13
EndSplineSet
EndChar

StartChar: D
Encoding: 68 68 28
Width: 798
Flags: W
LayerCount: 2
Fore
SplineSet
493 699 m 0,0,1
 448 700 448 700 420.5 727 c 128,-1,2
 393 754 393 754 393 799 c 256,3,4
 393 844 393 844 420.5 871.5 c 128,-1,5
 448 899 448 899 493 899 c 256,6,7
 538 899 538 899 565.5 871.5 c 128,-1,8
 593 844 593 844 593 799 c 256,9,10
 593 754 593 754 565.5 726.5 c 128,-1,11
 538 699 538 699 493 699 c 0,0,1
493 399 m 0,12,13
 448 400 448 400 420.5 427 c 128,-1,14
 393 454 393 454 393 499 c 256,15,16
 393 544 393 544 420.5 571.5 c 128,-1,17
 448 599 448 599 493 599 c 256,18,19
 538 599 538 599 565.5 571.5 c 128,-1,20
 593 544 593 544 593 499 c 256,21,22
 593 454 593 454 565.5 426.5 c 128,-1,23
 538 399 538 399 493 399 c 0,12,13
193 699 m 0,24,25
 148 700 148 700 120.5 727 c 128,-1,26
 93 754 93 754 93 799 c 256,27,28
 93 844 93 844 120.5 871.5 c 128,-1,29
 148 899 148 899 193 899 c 256,30,31
 238 899 238 899 265.5 871.5 c 128,-1,32
 293 844 293 844 293 799 c 256,33,34
 293 754 293 754 265.5 726.5 c 128,-1,35
 238 699 238 699 193 699 c 0,24,25
EndSplineSet
EndChar

StartChar: E
Encoding: 69 69 29
Width: 802
Flags: W
LayerCount: 2
Fore
SplineSet
504 397 m 0,0,1
 459 398 459 398 431.5 425 c 128,-1,2
 404 452 404 452 404 497 c 256,3,4
 404 542 404 542 431.5 569.5 c 128,-1,5
 459 597 459 597 504 597 c 256,6,7
 549 597 549 597 576.5 569.5 c 128,-1,8
 604 542 604 542 604 497 c 256,9,10
 604 452 604 452 576.5 424.5 c 128,-1,11
 549 397 549 397 504 397 c 0,0,1
204 697 m 0,12,13
 159 698 159 698 131.5 725 c 128,-1,14
 104 752 104 752 104 797 c 256,15,16
 104 842 104 842 131.5 869.5 c 128,-1,17
 159 897 159 897 204 897 c 256,18,19
 249 897 249 897 276.5 869.5 c 128,-1,20
 304 842 304 842 304 797 c 256,21,22
 304 752 304 752 276.5 724.5 c 128,-1,23
 249 697 249 697 204 697 c 0,12,13
EndSplineSet
EndChar

StartChar: F
Encoding: 70 70 30
Width: 802
Flags: W
LayerCount: 2
Fore
SplineSet
204 399 m 0,0,1
 159 400 159 400 131.5 427 c 128,-1,2
 104 454 104 454 104 499 c 256,3,4
 104 544 104 544 131.5 571.5 c 128,-1,5
 159 599 159 599 204 599 c 256,6,7
 249 599 249 599 276.5 571.5 c 128,-1,8
 304 544 304 544 304 499 c 256,9,10
 304 454 304 454 276.5 426.5 c 128,-1,11
 249 399 249 399 204 399 c 0,0,1
504 699 m 0,12,13
 459 700 459 700 431.5 727 c 128,-1,14
 404 754 404 754 404 799 c 256,15,16
 404 844 404 844 431.5 871.5 c 128,-1,17
 459 899 459 899 504 899 c 256,18,19
 549 899 549 899 576.5 871.5 c 128,-1,20
 604 844 604 844 604 799 c 256,21,22
 604 754 604 754 576.5 726.5 c 128,-1,23
 549 699 549 699 504 699 c 0,12,13
204 699 m 0,24,25
 159 700 159 700 131.5 727 c 128,-1,26
 104 754 104 754 104 799 c 256,27,28
 104 844 104 844 131.5 871.5 c 128,-1,29
 159 899 159 899 204 899 c 256,30,31
 249 899 249 899 276.5 871.5 c 128,-1,32
 304 844 304 844 304 799 c 256,33,34
 304 754 304 754 276.5 726.5 c 128,-1,35
 249 699 249 699 204 699 c 0,24,25
EndSplineSet
EndChar

StartChar: G
Encoding: 71 71 31
Width: 802
Flags: W
LayerCount: 2
Fore
SplineSet
204 395 m 0,0,1
 159 396 159 396 131.5 423 c 128,-1,2
 104 450 104 450 104 495 c 256,3,4
 104 540 104 540 131.5 567.5 c 128,-1,5
 159 595 159 595 204 595 c 256,6,7
 249 595 249 595 276.5 567.5 c 128,-1,8
 304 540 304 540 304 495 c 256,9,10
 304 450 304 450 276.5 422.5 c 128,-1,11
 249 395 249 395 204 395 c 0,0,1
504 695 m 0,12,13
 459 696 459 696 431.5 723 c 128,-1,14
 404 750 404 750 404 795 c 256,15,16
 404 840 404 840 431.5 867.5 c 128,-1,17
 459 895 459 895 504 895 c 256,18,19
 549 895 549 895 576.5 867.5 c 128,-1,20
 604 840 604 840 604 795 c 256,21,22
 604 750 604 750 576.5 722.5 c 128,-1,23
 549 695 549 695 504 695 c 0,12,13
504 395 m 0,24,25
 459 396 459 396 431.5 423 c 128,-1,26
 404 450 404 450 404 495 c 256,27,28
 404 540 404 540 431.5 567.5 c 128,-1,29
 459 595 459 595 504 595 c 256,30,31
 549 595 549 595 576.5 567.5 c 128,-1,32
 604 540 604 540 604 495 c 256,33,34
 604 450 604 450 576.5 422.5 c 128,-1,35
 549 395 549 395 504 395 c 0,24,25
204 695 m 0,36,37
 159 696 159 696 131.5 723 c 128,-1,38
 104 750 104 750 104 795 c 256,39,40
 104 840 104 840 131.5 867.5 c 128,-1,41
 159 895 159 895 204 895 c 256,42,43
 249 895 249 895 276.5 867.5 c 128,-1,44
 304 840 304 840 304 795 c 256,45,46
 304 750 304 750 276.5 722.5 c 128,-1,47
 249 695 249 695 204 695 c 0,36,37
EndSplineSet
EndChar

StartChar: H
Encoding: 72 72 32
Width: 802
Flags: W
LayerCount: 2
Fore
SplineSet
200 396 m 0,0,1
 155 397 155 397 127.5 424 c 128,-1,2
 100 451 100 451 100 496 c 256,3,4
 100 541 100 541 127.5 568.5 c 128,-1,5
 155 596 155 596 200 596 c 256,6,7
 245 596 245 596 272.5 568.5 c 128,-1,8
 300 541 300 541 300 496 c 256,9,10
 300 451 300 451 272.5 423.5 c 128,-1,11
 245 396 245 396 200 396 c 0,0,1
500 396 m 0,12,13
 455 397 455 397 427.5 424 c 128,-1,14
 400 451 400 451 400 496 c 256,15,16
 400 541 400 541 427.5 568.5 c 128,-1,17
 455 596 455 596 500 596 c 256,18,19
 545 596 545 596 572.5 568.5 c 128,-1,20
 600 541 600 541 600 496 c 256,21,22
 600 451 600 451 572.5 423.5 c 128,-1,23
 545 396 545 396 500 396 c 0,12,13
200 696 m 0,24,25
 155 697 155 697 127.5 724 c 128,-1,26
 100 751 100 751 100 796 c 256,27,28
 100 841 100 841 127.5 868.5 c 128,-1,29
 155 896 155 896 200 896 c 256,30,31
 245 896 245 896 272.5 868.5 c 128,-1,32
 300 841 300 841 300 796 c 256,33,34
 300 751 300 751 272.5 723.5 c 128,-1,35
 245 696 245 696 200 696 c 0,24,25
EndSplineSet
EndChar

StartChar: I
Encoding: 73 73 33
Width: 802
Flags: W
LayerCount: 2
Fore
SplineSet
207 402 m 0,0,1
 162 403 162 403 134.5 430 c 128,-1,2
 107 457 107 457 107 502 c 256,3,4
 107 547 107 547 134.5 574.5 c 128,-1,5
 162 602 162 602 207 602 c 256,6,7
 252 602 252 602 279.5 574.5 c 128,-1,8
 307 547 307 547 307 502 c 256,9,10
 307 457 307 457 279.5 429.5 c 128,-1,11
 252 402 252 402 207 402 c 0,0,1
507 702 m 0,12,13
 462 703 462 703 434.5 730 c 128,-1,14
 407 757 407 757 407 802 c 256,15,16
 407 847 407 847 434.5 874.5 c 128,-1,17
 462 902 462 902 507 902 c 256,18,19
 552 902 552 902 579.5 874.5 c 128,-1,20
 607 847 607 847 607 802 c 256,21,22
 607 757 607 757 579.5 729.5 c 128,-1,23
 552 702 552 702 507 702 c 0,12,13
EndSplineSet
EndChar

StartChar: J
Encoding: 74 74 34
Width: 802
Flags: W
LayerCount: 2
Fore
SplineSet
204 395 m 0,0,1
 159 396 159 396 131.5 423 c 128,-1,2
 104 450 104 450 104 495 c 256,3,4
 104 540 104 540 131.5 567.5 c 128,-1,5
 159 595 159 595 204 595 c 256,6,7
 249 595 249 595 276.5 567.5 c 128,-1,8
 304 540 304 540 304 495 c 256,9,10
 304 450 304 450 276.5 422.5 c 128,-1,11
 249 395 249 395 204 395 c 0,0,1
504 695 m 0,12,13
 459 696 459 696 431.5 723 c 128,-1,14
 404 750 404 750 404 795 c 256,15,16
 404 840 404 840 431.5 867.5 c 128,-1,17
 459 895 459 895 504 895 c 256,18,19
 549 895 549 895 576.5 867.5 c 128,-1,20
 604 840 604 840 604 795 c 256,21,22
 604 750 604 750 576.5 722.5 c 128,-1,23
 549 695 549 695 504 695 c 0,12,13
504 395 m 0,24,25
 459 396 459 396 431.5 423 c 128,-1,26
 404 450 404 450 404 495 c 256,27,28
 404 540 404 540 431.5 567.5 c 128,-1,29
 459 595 459 595 504 595 c 256,30,31
 549 595 549 595 576.5 567.5 c 128,-1,32
 604 540 604 540 604 495 c 256,33,34
 604 450 604 450 576.5 422.5 c 128,-1,35
 549 395 549 395 504 395 c 0,24,25
EndSplineSet
EndChar

StartChar: K
Encoding: 75 75 35
Width: 798
Flags: W
LayerCount: 2
Fore
SplineSet
204 100 m 0,0,1
 249 100 249 100 276.5 127.5 c 128,-1,2
 304 155 304 155 304 200 c 256,3,4
 304 245 304 245 276.5 271 c 128,-1,5
 249 297 249 297 204 297 c 256,6,7
 159 297 159 297 131.5 271 c 128,-1,8
 104 245 104 245 104 200 c 256,9,10
 104 155 104 155 131.5 128 c 128,-1,11
 159 101 159 101 204 100 c 0,0,1
204 698 m 0,12,13
 249 698 249 698 276.5 725.5 c 128,-1,14
 304 753 304 753 304 798 c 256,15,16
 304 843 304 843 276.5 870.5 c 128,-1,17
 249 898 249 898 204 898 c 256,18,19
 159 898 159 898 131.5 870.5 c 128,-1,20
 104 843 104 843 104 798 c 256,21,22
 104 753 104 753 131.5 726 c 128,-1,23
 159 699 159 699 204 698 c 0,12,13
EndSplineSet
EndChar

StartChar: L
Encoding: 76 76 36
Width: 802
Flags: W
LayerCount: 2
Fore
SplineSet
207 399 m 0,0,1
 252 399 252 399 279.5 426.5 c 128,-1,2
 307 454 307 454 307 499 c 256,3,4
 307 544 307 544 279.5 571.5 c 128,-1,5
 252 599 252 599 207 599 c 256,6,7
 162 599 162 599 134.5 571.5 c 128,-1,8
 107 544 107 544 107 499 c 256,9,10
 107 454 107 454 134.5 427 c 128,-1,11
 162 400 162 400 207 399 c 0,0,1
207 103 m 0,12,13
 252 103 252 103 279.5 130.5 c 128,-1,14
 307 158 307 158 307 203 c 256,15,16
 307 248 307 248 279.5 273 c 128,-1,17
 252 298 252 298 207 298 c 256,18,19
 162 298 162 298 134.5 273 c 128,-1,20
 107 248 107 248 107 203 c 256,21,22
 107 158 107 158 134.5 131 c 128,-1,23
 162 104 162 104 207 103 c 0,12,13
207 699 m 0,24,25
 252 699 252 699 279.5 726.5 c 128,-1,26
 307 754 307 754 307 799 c 256,27,28
 307 844 307 844 279.5 871.5 c 128,-1,29
 252 899 252 899 207 899 c 256,30,31
 162 899 162 899 134.5 871.5 c 128,-1,32
 107 844 107 844 107 799 c 256,33,34
 107 754 107 754 134.5 727 c 128,-1,35
 162 700 162 700 207 699 c 0,24,25
EndSplineSet
EndChar

StartChar: M
Encoding: 77 77 37
Width: 802
Flags: W
LayerCount: 2
Fore
SplineSet
204 103 m 0,0,1
 249 103 249 103 276.5 130.5 c 128,-1,2
 304 158 304 158 304 203 c 256,3,4
 304 248 304 248 276.5 274 c 128,-1,5
 249 300 249 300 204 300 c 256,6,7
 159 300 159 300 131.5 274 c 128,-1,8
 104 248 104 248 104 203 c 256,9,10
 104 158 104 158 131.5 131 c 128,-1,11
 159 104 159 104 204 103 c 0,0,1
504 701 m 0,12,13
 549 701 549 701 576.5 728.5 c 128,-1,14
 604 756 604 756 604 801 c 256,15,16
 604 846 604 846 576.5 873.5 c 128,-1,17
 549 901 549 901 504 901 c 256,18,19
 459 901 459 901 431.5 873.5 c 128,-1,20
 404 846 404 846 404 801 c 256,21,22
 404 756 404 756 431.5 729 c 128,-1,23
 459 702 459 702 504 701 c 0,12,13
204 701 m 0,24,25
 249 701 249 701 276.5 728.5 c 128,-1,26
 304 756 304 756 304 801 c 256,27,28
 304 846 304 846 276.5 873.5 c 128,-1,29
 249 901 249 901 204 901 c 256,30,31
 159 901 159 901 131.5 873.5 c 128,-1,32
 104 846 104 846 104 801 c 256,33,34
 104 756 104 756 131.5 729 c 128,-1,35
 159 702 159 702 204 701 c 0,24,25
EndSplineSet
EndChar

StartChar: N
Encoding: 78 78 38
Width: 802
Flags: W
LayerCount: 2
Fore
SplineSet
204 99 m 0,0,1
 249 99 249 99 276.5 126.5 c 128,-1,2
 304 154 304 154 304 199 c 256,3,4
 304 244 304 244 276.5 270 c 128,-1,5
 249 296 249 296 204 296 c 256,6,7
 159 296 159 296 131.5 270 c 128,-1,8
 104 244 104 244 104 199 c 256,9,10
 104 154 104 154 131.5 127 c 128,-1,11
 159 100 159 100 204 99 c 0,0,1
504 697 m 0,12,13
 549 697 549 697 576.5 724.5 c 128,-1,14
 604 752 604 752 604 797 c 256,15,16
 604 842 604 842 576.5 869.5 c 128,-1,17
 549 897 549 897 504 897 c 256,18,19
 459 897 459 897 431.5 869.5 c 128,-1,20
 404 842 404 842 404 797 c 256,21,22
 404 752 404 752 431.5 725 c 128,-1,23
 459 698 459 698 504 697 c 0,12,13
504 397 m 0,24,25
 549 397 549 397 576.5 424.5 c 128,-1,26
 604 452 604 452 604 497 c 256,27,28
 604 542 604 542 576.5 569.5 c 128,-1,29
 549 597 549 597 504 597 c 256,30,31
 459 597 459 597 431.5 569.5 c 128,-1,32
 404 542 404 542 404 497 c 256,33,34
 404 452 404 452 431.5 425 c 128,-1,35
 459 398 459 398 504 397 c 0,24,25
204 697 m 0,36,37
 249 697 249 697 276.5 724.5 c 128,-1,38
 304 752 304 752 304 797 c 256,39,40
 304 842 304 842 276.5 869.5 c 128,-1,41
 249 897 249 897 204 897 c 256,42,43
 159 897 159 897 131.5 869.5 c 128,-1,44
 104 842 104 842 104 797 c 256,45,46
 104 752 104 752 131.5 725 c 128,-1,47
 159 698 159 698 204 697 c 0,36,37
EndSplineSet
EndChar

StartChar: O
Encoding: 79 79 39
Width: 798
Flags: W
LayerCount: 2
Fore
SplineSet
201 101 m 0,0,1
 246 101 246 101 273.5 128.5 c 128,-1,2
 301 156 301 156 301 201 c 256,3,4
 301 246 301 246 273.5 272 c 128,-1,5
 246 298 246 298 201 298 c 256,6,7
 156 298 156 298 128.5 272 c 128,-1,8
 101 246 101 246 101 201 c 256,9,10
 101 156 101 156 128.5 129 c 128,-1,11
 156 102 156 102 201 101 c 0,0,1
501 399 m 0,12,13
 546 399 546 399 573.5 426.5 c 128,-1,14
 601 454 601 454 601 499 c 256,15,16
 601 544 601 544 573.5 571.5 c 128,-1,17
 546 599 546 599 501 599 c 256,18,19
 456 599 456 599 428.5 571.5 c 128,-1,20
 401 544 401 544 401 499 c 256,21,22
 401 454 401 454 428.5 427 c 128,-1,23
 456 400 456 400 501 399 c 0,12,13
201 699 m 0,24,25
 246 699 246 699 273.5 726.5 c 128,-1,26
 301 754 301 754 301 799 c 256,27,28
 301 844 301 844 273.5 871.5 c 128,-1,29
 246 899 246 899 201 899 c 256,30,31
 156 899 156 899 128.5 871.5 c 128,-1,32
 101 844 101 844 101 799 c 256,33,34
 101 754 101 754 128.5 727 c 128,-1,35
 156 700 156 700 201 699 c 0,24,25
EndSplineSet
EndChar

StartChar: P
Encoding: 80 80 40
Width: 802
Flags: W
LayerCount: 2
Fore
SplineSet
200 395 m 0,0,1
 155 396 155 396 127.5 423 c 128,-1,2
 100 450 100 450 100 495 c 256,3,4
 100 540 100 540 127.5 567.5 c 128,-1,5
 155 595 155 595 200 595 c 256,6,7
 245 595 245 595 272.5 567.5 c 128,-1,8
 300 540 300 540 300 495 c 256,9,10
 300 450 300 450 272.5 422.5 c 128,-1,11
 245 395 245 395 200 395 c 0,0,1
200 97 m 0,12,13
 155 98 155 98 127.5 125 c 128,-1,14
 100 152 100 152 100 197 c 256,15,16
 100 242 100 242 127.5 268 c 128,-1,17
 155 294 155 294 200 294 c 256,18,19
 245 294 245 294 272.5 268 c 128,-1,20
 300 242 300 242 300 197 c 256,21,22
 300 152 300 152 272.5 124.5 c 128,-1,23
 245 97 245 97 200 97 c 0,12,13
500 695 m 0,24,25
 455 696 455 696 427.5 723 c 128,-1,26
 400 750 400 750 400 795 c 256,27,28
 400 840 400 840 427.5 867.5 c 128,-1,29
 455 895 455 895 500 895 c 256,30,31
 545 895 545 895 572.5 867.5 c 128,-1,32
 600 840 600 840 600 795 c 256,33,34
 600 750 600 750 572.5 722.5 c 128,-1,35
 545 695 545 695 500 695 c 0,24,25
200 695 m 0,36,37
 155 696 155 696 127.5 723 c 128,-1,38
 100 750 100 750 100 795 c 256,39,40
 100 840 100 840 127.5 867.5 c 128,-1,41
 155 895 155 895 200 895 c 256,42,43
 245 895 245 895 272.5 867.5 c 128,-1,44
 300 840 300 840 300 795 c 256,45,46
 300 750 300 750 272.5 722.5 c 128,-1,47
 245 695 245 695 200 695 c 0,36,37
EndSplineSet
EndChar

StartChar: Q
Encoding: 81 81 41
Width: 798
Flags: W
LayerCount: 2
Fore
SplineSet
197 395 m 0,0,1
 152 396 152 396 124.5 423 c 128,-1,2
 97 450 97 450 97 495 c 256,3,4
 97 540 97 540 124.5 567.5 c 128,-1,5
 152 595 152 595 197 595 c 256,6,7
 242 595 242 595 269.5 567.5 c 128,-1,8
 297 540 297 540 297 495 c 256,9,10
 297 450 297 450 269.5 422.5 c 128,-1,11
 242 395 242 395 197 395 c 0,0,1
197 97 m 0,12,13
 152 98 152 98 124.5 125 c 128,-1,14
 97 152 97 152 97 197 c 256,15,16
 97 242 97 242 124.5 268 c 128,-1,17
 152 294 152 294 197 294 c 256,18,19
 242 294 242 294 269.5 268 c 128,-1,20
 297 242 297 242 297 197 c 256,21,22
 297 152 297 152 269.5 124.5 c 128,-1,23
 242 97 242 97 197 97 c 0,12,13
497 695 m 0,24,25
 452 696 452 696 424.5 723 c 128,-1,26
 397 750 397 750 397 795 c 256,27,28
 397 840 397 840 424.5 867.5 c 128,-1,29
 452 895 452 895 497 895 c 256,30,31
 542 895 542 895 569.5 867.5 c 128,-1,32
 597 840 597 840 597 795 c 256,33,34
 597 750 597 750 569.5 722.5 c 128,-1,35
 542 695 542 695 497 695 c 0,24,25
497 395 m 0,36,37
 452 396 452 396 424.5 423 c 128,-1,38
 397 450 397 450 397 495 c 256,39,40
 397 540 397 540 424.5 567.5 c 128,-1,41
 452 595 452 595 497 595 c 256,42,43
 542 595 542 595 569.5 567.5 c 128,-1,44
 597 540 597 540 597 495 c 256,45,46
 597 450 597 450 569.5 422.5 c 128,-1,47
 542 395 542 395 497 395 c 0,36,37
197 695 m 0,48,49
 152 696 152 696 124.5 723 c 128,-1,50
 97 750 97 750 97 795 c 256,51,52
 97 840 97 840 124.5 867.5 c 128,-1,53
 152 895 152 895 197 895 c 256,54,55
 242 895 242 895 269.5 867.5 c 128,-1,56
 297 840 297 840 297 795 c 256,57,58
 297 750 297 750 269.5 722.5 c 128,-1,59
 242 695 242 695 197 695 c 0,48,49
EndSplineSet
EndChar

StartChar: R
Encoding: 82 82 42
Width: 802
Flags: W
LayerCount: 2
Fore
SplineSet
200 397 m 0,0,1
 155 398 155 398 127.5 425 c 128,-1,2
 100 452 100 452 100 497 c 256,3,4
 100 542 100 542 127.5 569.5 c 128,-1,5
 155 597 155 597 200 597 c 256,6,7
 245 597 245 597 272.5 569.5 c 128,-1,8
 300 542 300 542 300 497 c 256,9,10
 300 452 300 452 272.5 424.5 c 128,-1,11
 245 397 245 397 200 397 c 0,0,1
200 101 m 0,12,13
 155 102 155 102 127.5 129 c 128,-1,14
 100 156 100 156 100 201 c 256,15,16
 100 246 100 246 127.5 271 c 128,-1,17
 155 296 155 296 200 296 c 256,18,19
 245 296 245 296 272.5 271 c 128,-1,20
 300 246 300 246 300 201 c 256,21,22
 300 156 300 156 272.5 128.5 c 128,-1,23
 245 101 245 101 200 101 c 0,12,13
500 397 m 0,24,25
 455 398 455 398 427.5 425 c 128,-1,26
 400 452 400 452 400 497 c 256,27,28
 400 542 400 542 427.5 569.5 c 128,-1,29
 455 597 455 597 500 597 c 256,30,31
 545 597 545 597 572.5 569.5 c 128,-1,32
 600 542 600 542 600 497 c 256,33,34
 600 452 600 452 572.5 424.5 c 128,-1,35
 545 397 545 397 500 397 c 0,24,25
200 697 m 0,36,37
 155 698 155 698 127.5 725 c 128,-1,38
 100 752 100 752 100 797 c 256,39,40
 100 842 100 842 127.5 869.5 c 128,-1,41
 155 897 155 897 200 897 c 256,42,43
 245 897 245 897 272.5 869.5 c 128,-1,44
 300 842 300 842 300 797 c 256,45,46
 300 752 300 752 272.5 724.5 c 128,-1,47
 245 697 245 697 200 697 c 0,36,37
EndSplineSet
EndChar

StartChar: S
Encoding: 83 83 43
Width: 802
Flags: W
LayerCount: 2
Fore
SplineSet
201 402 m 0,0,1
 156 403 156 403 128.5 430 c 128,-1,2
 101 457 101 457 101 502 c 256,3,4
 101 547 101 547 128.5 574.5 c 128,-1,5
 156 602 156 602 201 602 c 256,6,7
 246 602 246 602 273.5 574.5 c 128,-1,8
 301 547 301 547 301 502 c 256,9,10
 301 457 301 457 273.5 429.5 c 128,-1,11
 246 402 246 402 201 402 c 0,0,1
201 104 m 0,12,13
 156 105 156 105 128.5 132 c 128,-1,14
 101 159 101 159 101 204 c 256,15,16
 101 249 101 249 128.5 275 c 128,-1,17
 156 301 156 301 201 301 c 256,18,19
 246 301 246 301 273.5 275 c 128,-1,20
 301 249 301 249 301 204 c 256,21,22
 301 159 301 159 273.5 131.5 c 128,-1,23
 246 104 246 104 201 104 c 0,12,13
501 702 m 0,24,25
 456 703 456 703 428.5 730 c 128,-1,26
 401 757 401 757 401 802 c 256,27,28
 401 847 401 847 428.5 874.5 c 128,-1,29
 456 902 456 902 501 902 c 256,30,31
 546 902 546 902 573.5 874.5 c 128,-1,32
 601 847 601 847 601 802 c 256,33,34
 601 757 601 757 573.5 729.5 c 128,-1,35
 546 702 546 702 501 702 c 0,24,25
EndSplineSet
EndChar

StartChar: T
Encoding: 84 84 44
Width: 794
Flags: W
LayerCount: 2
Fore
SplineSet
204 398 m 0,0,1
 159 399 159 399 131.5 426 c 128,-1,2
 104 453 104 453 104 498 c 256,3,4
 104 543 104 543 131.5 570.5 c 128,-1,5
 159 598 159 598 204 598 c 256,6,7
 249 598 249 598 276.5 570.5 c 128,-1,8
 304 543 304 543 304 498 c 256,9,10
 304 453 304 453 276.5 425.5 c 128,-1,11
 249 398 249 398 204 398 c 0,0,1
204 100 m 0,12,13
 159 101 159 101 131.5 128 c 128,-1,14
 104 155 104 155 104 200 c 256,15,16
 104 245 104 245 131.5 271 c 128,-1,17
 159 297 159 297 204 297 c 256,18,19
 249 297 249 297 276.5 271 c 128,-1,20
 304 245 304 245 304 200 c 256,21,22
 304 155 304 155 276.5 127.5 c 128,-1,23
 249 100 249 100 204 100 c 0,12,13
504 698 m 0,24,25
 459 699 459 699 431.5 726 c 128,-1,26
 404 753 404 753 404 798 c 256,27,28
 404 843 404 843 431.5 870.5 c 128,-1,29
 459 898 459 898 504 898 c 256,30,31
 549 898 549 898 576.5 870.5 c 128,-1,32
 604 843 604 843 604 798 c 256,33,34
 604 753 604 753 576.5 725.5 c 128,-1,35
 549 698 549 698 504 698 c 0,24,25
504 398 m 0,36,37
 459 399 459 399 431.5 426 c 128,-1,38
 404 453 404 453 404 498 c 256,39,40
 404 543 404 543 431.5 570.5 c 128,-1,41
 459 598 459 598 504 598 c 256,42,43
 549 598 549 598 576.5 570.5 c 128,-1,44
 604 543 604 543 604 498 c 256,45,46
 604 453 604 453 576.5 425.5 c 128,-1,47
 549 398 549 398 504 398 c 0,36,37
EndSplineSet
EndChar

StartChar: U
Encoding: 85 85 45
Width: 802
Flags: W
LayerCount: 2
Fore
SplineSet
201 101 m 0,0,1
 156 102 156 102 128.5 129 c 128,-1,2
 101 156 101 156 101 201 c 256,3,4
 101 246 101 246 128.5 272 c 128,-1,5
 156 298 156 298 201 298 c 256,6,7
 246 298 246 298 273.5 272 c 128,-1,8
 301 246 301 246 301 201 c 256,9,10
 301 156 301 156 273.5 128.5 c 128,-1,11
 246 101 246 101 201 101 c 0,0,1
501 102 m 0,12,13
 456 103 456 103 428.5 130 c 128,-1,14
 401 157 401 157 401 202 c 256,15,16
 401 247 401 247 428.5 273 c 128,-1,17
 456 299 456 299 501 299 c 256,18,19
 546 299 546 299 573.5 273 c 128,-1,20
 601 247 601 247 601 202 c 256,21,22
 601 157 601 157 573.5 129.5 c 128,-1,23
 546 102 546 102 501 102 c 0,12,13
201 699 m 0,24,25
 156 700 156 700 128.5 727 c 128,-1,26
 101 754 101 754 101 799 c 256,27,28
 101 844 101 844 128.5 871.5 c 128,-1,29
 156 899 156 899 201 899 c 256,30,31
 246 899 246 899 273.5 871.5 c 128,-1,32
 301 844 301 844 301 799 c 256,33,34
 301 754 301 754 273.5 726.5 c 128,-1,35
 246 699 246 699 201 699 c 0,24,25
EndSplineSet
EndChar

StartChar: V
Encoding: 86 86 46
Width: 802
Flags: W
LayerCount: 2
Fore
SplineSet
201 402 m 0,0,1
 156 403 156 403 128.5 430 c 128,-1,2
 101 457 101 457 101 502 c 256,3,4
 101 547 101 547 128.5 574.5 c 128,-1,5
 156 602 156 602 201 602 c 256,6,7
 246 602 246 602 273.5 574.5 c 128,-1,8
 301 547 301 547 301 502 c 256,9,10
 301 457 301 457 273.5 429.5 c 128,-1,11
 246 402 246 402 201 402 c 0,0,1
201 104 m 0,12,13
 156 105 156 105 128.5 132 c 128,-1,14
 101 159 101 159 101 204 c 256,15,16
 101 249 101 249 128.5 275 c 128,-1,17
 156 301 156 301 201 301 c 256,18,19
 246 301 246 301 273.5 275 c 128,-1,20
 301 249 301 249 301 204 c 256,21,22
 301 159 301 159 273.5 131.5 c 128,-1,23
 246 104 246 104 201 104 c 0,12,13
501 105 m 0,24,25
 456 106 456 106 428.5 133 c 128,-1,26
 401 160 401 160 401 205 c 256,27,28
 401 250 401 250 428.5 276 c 128,-1,29
 456 302 456 302 501 302 c 256,30,31
 546 302 546 302 573.5 276 c 128,-1,32
 601 250 601 250 601 205 c 256,33,34
 601 160 601 160 573.5 132.5 c 128,-1,35
 546 105 546 105 501 105 c 0,24,25
201 702 m 0,36,37
 156 703 156 703 128.5 730 c 128,-1,38
 101 757 101 757 101 802 c 256,39,40
 101 847 101 847 128.5 874.5 c 128,-1,41
 156 902 156 902 201 902 c 256,42,43
 246 902 246 902 273.5 874.5 c 128,-1,44
 301 847 301 847 301 802 c 256,45,46
 301 757 301 757 273.5 729.5 c 128,-1,47
 246 702 246 702 201 702 c 0,36,37
EndSplineSet
EndChar

StartChar: W
Encoding: 87 87 47
Width: 802
Flags: W
LayerCount: 2
Fore
SplineSet
200 399 m 0,0,1
 155 400 155 400 127.5 427 c 128,-1,2
 100 454 100 454 100 499 c 256,3,4
 100 544 100 544 127.5 571.5 c 128,-1,5
 155 599 155 599 200 599 c 256,6,7
 245 599 245 599 272.5 571.5 c 128,-1,8
 300 544 300 544 300 499 c 256,9,10
 300 454 300 454 272.5 426.5 c 128,-1,11
 245 399 245 399 200 399 c 0,0,1
500 699 m 0,12,13
 455 700 455 700 427.5 727 c 128,-1,14
 400 754 400 754 400 799 c 256,15,16
 400 844 400 844 427.5 871.5 c 128,-1,17
 455 899 455 899 500 899 c 256,18,19
 545 899 545 899 572.5 871.5 c 128,-1,20
 600 844 600 844 600 799 c 256,21,22
 600 754 600 754 572.5 726.5 c 128,-1,23
 545 699 545 699 500 699 c 0,12,13
500 399 m 0,24,25
 455 400 455 400 427.5 427 c 128,-1,26
 400 454 400 454 400 499 c 256,27,28
 400 544 400 544 427.5 571.5 c 128,-1,29
 455 599 455 599 500 599 c 256,30,31
 545 599 545 599 572.5 571.5 c 128,-1,32
 600 544 600 544 600 499 c 256,33,34
 600 454 600 454 572.5 426.5 c 128,-1,35
 545 399 545 399 500 399 c 0,24,25
500 103 m 0,36,37
 455 104 455 104 427.5 130.5 c 128,-1,38
 400 157 400 157 400 202 c 256,39,40
 400 247 400 247 427.5 273 c 128,-1,41
 455 299 455 299 500 299 c 256,42,43
 545 299 545 299 572.5 273 c 128,-1,44
 600 247 600 247 600 202 c 256,45,46
 600 157 600 157 572.5 130 c 128,-1,47
 545 103 545 103 500 103 c 0,36,37
EndSplineSet
EndChar

StartChar: X
Encoding: 88 88 48
Width: 798
Flags: W
LayerCount: 2
Fore
SplineSet
201 101 m 0,0,1
 156 102 156 102 128.5 129 c 128,-1,2
 101 156 101 156 101 201 c 256,3,4
 101 246 101 246 128.5 272 c 128,-1,5
 156 298 156 298 201 298 c 256,6,7
 246 298 246 298 273.5 272 c 128,-1,8
 301 246 301 246 301 201 c 256,9,10
 301 156 301 156 273.5 128.5 c 128,-1,11
 246 101 246 101 201 101 c 0,0,1
501 699 m 0,12,13
 456 700 456 700 428.5 727 c 128,-1,14
 401 754 401 754 401 799 c 256,15,16
 401 844 401 844 428.5 871.5 c 128,-1,17
 456 899 456 899 501 899 c 256,18,19
 546 899 546 899 573.5 871.5 c 128,-1,20
 601 844 601 844 601 799 c 256,21,22
 601 754 601 754 573.5 726.5 c 128,-1,23
 546 699 546 699 501 699 c 0,12,13
501 102 m 0,24,25
 456 103 456 103 428.5 130 c 128,-1,26
 401 157 401 157 401 202 c 256,27,28
 401 247 401 247 428.5 273 c 128,-1,29
 456 299 456 299 501 299 c 256,30,31
 546 299 546 299 573.5 273 c 128,-1,32
 601 247 601 247 601 202 c 256,33,34
 601 157 601 157 573.5 129.5 c 128,-1,35
 546 102 546 102 501 102 c 0,24,25
201 699 m 0,36,37
 156 700 156 700 128.5 727 c 128,-1,38
 101 754 101 754 101 799 c 256,39,40
 101 844 101 844 128.5 871.5 c 128,-1,41
 156 899 156 899 201 899 c 256,42,43
 246 899 246 899 273.5 871.5 c 128,-1,44
 301 844 301 844 301 799 c 256,45,46
 301 754 301 754 273.5 726.5 c 128,-1,47
 246 699 246 699 201 699 c 0,36,37
EndSplineSet
EndChar

StartChar: Y
Encoding: 89 89 49
Width: 802
Flags: W
LayerCount: 2
Fore
SplineSet
200 102 m 0,0,1
 155 103 155 103 127.5 129.5 c 128,-1,2
 100 156 100 156 100 201 c 256,3,4
 100 246 100 246 127.5 272 c 128,-1,5
 155 298 155 298 200 298 c 256,6,7
 245 298 245 298 272.5 272 c 128,-1,8
 300 246 300 246 300 201 c 256,9,10
 300 156 300 156 272.5 129 c 128,-1,11
 245 102 245 102 200 102 c 0,0,1
500 699 m 0,12,13
 455 700 455 700 427.5 727 c 128,-1,14
 400 754 400 754 400 799 c 256,15,16
 400 844 400 844 427.5 871.5 c 128,-1,17
 455 899 455 899 500 899 c 256,18,19
 545 899 545 899 572.5 871.5 c 128,-1,20
 600 844 600 844 600 799 c 256,21,22
 600 754 600 754 572.5 726.5 c 128,-1,23
 545 699 545 699 500 699 c 0,12,13
500 399 m 0,24,25
 455 400 455 400 427.5 427 c 128,-1,26
 400 454 400 454 400 499 c 256,27,28
 400 544 400 544 427.5 571.5 c 128,-1,29
 455 599 455 599 500 599 c 256,30,31
 545 599 545 599 572.5 571.5 c 128,-1,32
 600 544 600 544 600 499 c 256,33,34
 600 454 600 454 572.5 426.5 c 128,-1,35
 545 399 545 399 500 399 c 0,24,25
500 103 m 0,36,37
 455 104 455 104 427.5 130.5 c 128,-1,38
 400 157 400 157 400 202 c 256,39,40
 400 247 400 247 427.5 273 c 128,-1,41
 455 299 455 299 500 299 c 256,42,43
 545 299 545 299 572.5 273 c 128,-1,44
 600 247 600 247 600 202 c 256,45,46
 600 157 600 157 572.5 130 c 128,-1,47
 545 103 545 103 500 103 c 0,36,37
200 699 m 0,48,49
 155 700 155 700 127.5 727 c 128,-1,50
 100 754 100 754 100 799 c 256,51,52
 100 844 100 844 127.5 871.5 c 128,-1,53
 155 899 155 899 200 899 c 256,54,55
 245 899 245 899 272.5 871.5 c 128,-1,56
 300 844 300 844 300 799 c 256,57,58
 300 754 300 754 272.5 726.5 c 128,-1,59
 245 699 245 699 200 699 c 0,48,49
EndSplineSet
EndChar

StartChar: Z
Encoding: 90 90 50
Width: 802
Flags: W
LayerCount: 2
Fore
SplineSet
204 99 m 0,0,1
 159 100 159 100 131.5 126.5 c 128,-1,2
 104 153 104 153 104 198 c 256,3,4
 104 243 104 243 131.5 269 c 128,-1,5
 159 295 159 295 204 295 c 256,6,7
 249 295 249 295 276.5 269 c 128,-1,8
 304 243 304 243 304 198 c 256,9,10
 304 153 304 153 276.5 126 c 128,-1,11
 249 99 249 99 204 99 c 0,0,1
504 396 m 0,12,13
 459 397 459 397 431.5 424 c 128,-1,14
 404 451 404 451 404 496 c 256,15,16
 404 541 404 541 431.5 568.5 c 128,-1,17
 459 596 459 596 504 596 c 256,18,19
 549 596 549 596 576.5 568.5 c 128,-1,20
 604 541 604 541 604 496 c 256,21,22
 604 451 604 451 576.5 423.5 c 128,-1,23
 549 396 549 396 504 396 c 0,12,13
504 100 m 0,24,25
 459 101 459 101 431.5 127.5 c 128,-1,26
 404 154 404 154 404 199 c 256,27,28
 404 244 404 244 431.5 270 c 128,-1,29
 459 296 459 296 504 296 c 256,30,31
 549 296 549 296 576.5 270 c 128,-1,32
 604 244 604 244 604 199 c 256,33,34
 604 154 604 154 576.5 127 c 128,-1,35
 549 100 549 100 504 100 c 0,24,25
204 696 m 0,36,37
 159 697 159 697 131.5 724 c 128,-1,38
 104 751 104 751 104 796 c 256,39,40
 104 841 104 841 131.5 868.5 c 128,-1,41
 159 896 159 896 204 896 c 256,42,43
 249 896 249 896 276.5 868.5 c 128,-1,44
 304 841 304 841 304 796 c 256,45,46
 304 751 304 751 276.5 723.5 c 128,-1,47
 249 696 249 696 204 696 c 0,36,37
EndSplineSet
EndChar

StartChar: a
Encoding: 97 97 51
Width: 805
Flags: W
LayerCount: 2
Fore
SplineSet
205 705 m 0,0,1
 160 706 160 706 132.5 733 c 128,-1,2
 105 760 105 760 105 805 c 256,3,4
 105 850 105 850 132.5 877.5 c 128,-1,5
 160 905 160 905 205 905 c 256,6,7
 250 905 250 905 277.5 877.5 c 128,-1,8
 305 850 305 850 305 805 c 256,9,10
 305 760 305 760 277.5 732.5 c 128,-1,11
 250 705 250 705 205 705 c 0,0,1
EndSplineSet
EndChar

StartChar: b
Encoding: 98 98 52
Width: 802
Flags: W
LayerCount: 2
Fore
SplineSet
204 400 m 0,0,1
 159 401 159 401 131.5 428 c 128,-1,2
 104 455 104 455 104 500 c 256,3,4
 104 545 104 545 131.5 572.5 c 128,-1,5
 159 600 159 600 204 600 c 256,6,7
 249 600 249 600 276.5 572.5 c 128,-1,8
 304 545 304 545 304 500 c 256,9,10
 304 455 304 455 276.5 427.5 c 128,-1,11
 249 400 249 400 204 400 c 0,0,1
204 700 m 0,12,13
 159 701 159 701 131.5 728 c 128,-1,14
 104 755 104 755 104 800 c 256,15,16
 104 845 104 845 131.5 872.5 c 128,-1,17
 159 900 159 900 204 900 c 256,18,19
 249 900 249 900 276.5 872.5 c 128,-1,20
 304 845 304 845 304 800 c 256,21,22
 304 755 304 755 276.5 727.5 c 128,-1,23
 249 700 249 700 204 700 c 0,12,13
EndSplineSet
EndChar

StartChar: c
Encoding: 99 99 53
Width: 798
Flags: W
LayerCount: 2
Fore
SplineSet
504 703 m 0,0,1
 459 704 459 704 431.5 731 c 128,-1,2
 404 758 404 758 404 803 c 256,3,4
 404 848 404 848 431.5 875.5 c 128,-1,5
 459 903 459 903 504 903 c 256,6,7
 549 903 549 903 576.5 875.5 c 128,-1,8
 604 848 604 848 604 803 c 256,9,10
 604 758 604 758 576.5 730.5 c 128,-1,11
 549 703 549 703 504 703 c 0,0,1
204 703 m 0,12,13
 159 704 159 704 131.5 731 c 128,-1,14
 104 758 104 758 104 803 c 256,15,16
 104 848 104 848 131.5 875.5 c 128,-1,17
 159 903 159 903 204 903 c 256,18,19
 249 903 249 903 276.5 875.5 c 128,-1,20
 304 848 304 848 304 803 c 256,21,22
 304 758 304 758 276.5 730.5 c 128,-1,23
 249 703 249 703 204 703 c 0,12,13
EndSplineSet
EndChar

StartChar: d
Encoding: 100 100 54
Width: 798
Flags: W
LayerCount: 2
Fore
SplineSet
493 699 m 0,0,1
 538 699 538 699 565.5 726.5 c 128,-1,2
 593 754 593 754 593 799 c 256,3,4
 593 844 593 844 565.5 871.5 c 128,-1,5
 538 899 538 899 493 899 c 256,6,7
 448 899 448 899 420.5 871.5 c 128,-1,8
 393 844 393 844 393 799 c 256,9,10
 393 754 393 754 420.5 727 c 128,-1,11
 448 700 448 700 493 699 c 0,0,1
493 399 m 0,12,13
 538 399 538 399 565.5 426.5 c 128,-1,14
 593 454 593 454 593 499 c 256,15,16
 593 544 593 544 565.5 571.5 c 128,-1,17
 538 599 538 599 493 599 c 256,18,19
 448 599 448 599 420.5 571.5 c 128,-1,20
 393 544 393 544 393 499 c 256,21,22
 393 454 393 454 420.5 427 c 128,-1,23
 448 400 448 400 493 399 c 0,12,13
193 699 m 0,24,25
 238 699 238 699 265.5 726.5 c 128,-1,26
 293 754 293 754 293 799 c 256,27,28
 293 844 293 844 265.5 871.5 c 128,-1,29
 238 899 238 899 193 899 c 256,30,31
 148 899 148 899 120.5 871.5 c 128,-1,32
 93 844 93 844 93 799 c 256,33,34
 93 754 93 754 120.5 727 c 128,-1,35
 148 700 148 700 193 699 c 0,24,25
EndSplineSet
EndChar

StartChar: e
Encoding: 101 101 55
Width: 802
Flags: W
LayerCount: 2
Fore
SplineSet
504 397 m 0,0,1
 549 397 549 397 576.5 424.5 c 128,-1,2
 604 452 604 452 604 497 c 256,3,4
 604 542 604 542 576.5 569.5 c 128,-1,5
 549 597 549 597 504 597 c 256,6,7
 459 597 459 597 431.5 569.5 c 128,-1,8
 404 542 404 542 404 497 c 256,9,10
 404 452 404 452 431.5 425 c 128,-1,11
 459 398 459 398 504 397 c 0,0,1
204 697 m 0,12,13
 249 697 249 697 276.5 724.5 c 128,-1,14
 304 752 304 752 304 797 c 256,15,16
 304 842 304 842 276.5 869.5 c 128,-1,17
 249 897 249 897 204 897 c 256,18,19
 159 897 159 897 131.5 869.5 c 128,-1,20
 104 842 104 842 104 797 c 256,21,22
 104 752 104 752 131.5 725 c 128,-1,23
 159 698 159 698 204 697 c 0,12,13
EndSplineSet
EndChar

StartChar: f
Encoding: 102 102 56
Width: 802
Flags: W
LayerCount: 2
Fore
SplineSet
204 399 m 0,0,1
 249 399 249 399 276.5 426.5 c 128,-1,2
 304 454 304 454 304 499 c 256,3,4
 304 544 304 544 276.5 571.5 c 128,-1,5
 249 599 249 599 204 599 c 256,6,7
 159 599 159 599 131.5 571.5 c 128,-1,8
 104 544 104 544 104 499 c 256,9,10
 104 454 104 454 131.5 427 c 128,-1,11
 159 400 159 400 204 399 c 0,0,1
504 699 m 0,12,13
 549 699 549 699 576.5 726.5 c 128,-1,14
 604 754 604 754 604 799 c 256,15,16
 604 844 604 844 576.5 871.5 c 128,-1,17
 549 899 549 899 504 899 c 256,18,19
 459 899 459 899 431.5 871.5 c 128,-1,20
 404 844 404 844 404 799 c 256,21,22
 404 754 404 754 431.5 727 c 128,-1,23
 459 700 459 700 504 699 c 0,12,13
204 699 m 0,24,25
 249 699 249 699 276.5 726.5 c 128,-1,26
 304 754 304 754 304 799 c 256,27,28
 304 844 304 844 276.5 871.5 c 128,-1,29
 249 899 249 899 204 899 c 256,30,31
 159 899 159 899 131.5 871.5 c 128,-1,32
 104 844 104 844 104 799 c 256,33,34
 104 754 104 754 131.5 727 c 128,-1,35
 159 700 159 700 204 699 c 0,24,25
EndSplineSet
EndChar

StartChar: g
Encoding: 103 103 57
Width: 802
Flags: W
LayerCount: 2
Fore
SplineSet
204 395 m 0,0,1
 249 395 249 395 276.5 422.5 c 128,-1,2
 304 450 304 450 304 495 c 256,3,4
 304 540 304 540 276.5 567.5 c 128,-1,5
 249 595 249 595 204 595 c 256,6,7
 159 595 159 595 131.5 567.5 c 128,-1,8
 104 540 104 540 104 495 c 256,9,10
 104 450 104 450 131.5 423 c 128,-1,11
 159 396 159 396 204 395 c 0,0,1
504 695 m 0,12,13
 549 695 549 695 576.5 722.5 c 128,-1,14
 604 750 604 750 604 795 c 256,15,16
 604 840 604 840 576.5 867.5 c 128,-1,17
 549 895 549 895 504 895 c 256,18,19
 459 895 459 895 431.5 867.5 c 128,-1,20
 404 840 404 840 404 795 c 256,21,22
 404 750 404 750 431.5 723 c 128,-1,23
 459 696 459 696 504 695 c 0,12,13
504 395 m 0,24,25
 549 395 549 395 576.5 422.5 c 128,-1,26
 604 450 604 450 604 495 c 256,27,28
 604 540 604 540 576.5 567.5 c 128,-1,29
 549 595 549 595 504 595 c 256,30,31
 459 595 459 595 431.5 567.5 c 128,-1,32
 404 540 404 540 404 495 c 256,33,34
 404 450 404 450 431.5 423 c 128,-1,35
 459 396 459 396 504 395 c 0,24,25
204 695 m 0,36,37
 249 695 249 695 276.5 722.5 c 128,-1,38
 304 750 304 750 304 795 c 256,39,40
 304 840 304 840 276.5 867.5 c 128,-1,41
 249 895 249 895 204 895 c 256,42,43
 159 895 159 895 131.5 867.5 c 128,-1,44
 104 840 104 840 104 795 c 256,45,46
 104 750 104 750 131.5 723 c 128,-1,47
 159 696 159 696 204 695 c 0,36,37
EndSplineSet
EndChar

StartChar: h
Encoding: 104 104 58
Width: 802
Flags: W
LayerCount: 2
Fore
SplineSet
200 396 m 0,0,1
 245 396 245 396 272.5 423.5 c 128,-1,2
 300 451 300 451 300 496 c 256,3,4
 300 541 300 541 272.5 568.5 c 128,-1,5
 245 596 245 596 200 596 c 256,6,7
 155 596 155 596 127.5 568.5 c 128,-1,8
 100 541 100 541 100 496 c 256,9,10
 100 451 100 451 127.5 424 c 128,-1,11
 155 397 155 397 200 396 c 0,0,1
500 396 m 0,12,13
 545 396 545 396 572.5 423.5 c 128,-1,14
 600 451 600 451 600 496 c 256,15,16
 600 541 600 541 572.5 568.5 c 128,-1,17
 545 596 545 596 500 596 c 256,18,19
 455 596 455 596 427.5 568.5 c 128,-1,20
 400 541 400 541 400 496 c 256,21,22
 400 451 400 451 427.5 424 c 128,-1,23
 455 397 455 397 500 396 c 0,12,13
200 696 m 0,24,25
 245 696 245 696 272.5 723.5 c 128,-1,26
 300 751 300 751 300 796 c 256,27,28
 300 841 300 841 272.5 868.5 c 128,-1,29
 245 896 245 896 200 896 c 256,30,31
 155 896 155 896 127.5 868.5 c 128,-1,32
 100 841 100 841 100 796 c 256,33,34
 100 751 100 751 127.5 724 c 128,-1,35
 155 697 155 697 200 696 c 0,24,25
EndSplineSet
EndChar

StartChar: i
Encoding: 105 105 59
Width: 802
Flags: W
LayerCount: 2
Fore
SplineSet
207 402 m 0,0,1
 252 402 252 402 279.5 429.5 c 128,-1,2
 307 457 307 457 307 502 c 256,3,4
 307 547 307 547 279.5 574.5 c 128,-1,5
 252 602 252 602 207 602 c 256,6,7
 162 602 162 602 134.5 574.5 c 128,-1,8
 107 547 107 547 107 502 c 256,9,10
 107 457 107 457 134.5 430 c 128,-1,11
 162 403 162 403 207 402 c 0,0,1
507 702 m 0,12,13
 552 702 552 702 579.5 729.5 c 128,-1,14
 607 757 607 757 607 802 c 256,15,16
 607 847 607 847 579.5 874.5 c 128,-1,17
 552 902 552 902 507 902 c 256,18,19
 462 902 462 902 434.5 874.5 c 128,-1,20
 407 847 407 847 407 802 c 256,21,22
 407 757 407 757 434.5 730 c 128,-1,23
 462 703 462 703 507 702 c 0,12,13
EndSplineSet
EndChar

StartChar: j
Encoding: 106 106 60
Width: 802
Flags: W
LayerCount: 2
Fore
SplineSet
204 395 m 0,0,1
 249 395 249 395 276.5 422.5 c 128,-1,2
 304 450 304 450 304 495 c 256,3,4
 304 540 304 540 276.5 567.5 c 128,-1,5
 249 595 249 595 204 595 c 256,6,7
 159 595 159 595 131.5 567.5 c 128,-1,8
 104 540 104 540 104 495 c 256,9,10
 104 450 104 450 131.5 423 c 128,-1,11
 159 396 159 396 204 395 c 0,0,1
504 695 m 0,12,13
 549 695 549 695 576.5 722.5 c 128,-1,14
 604 750 604 750 604 795 c 256,15,16
 604 840 604 840 576.5 867.5 c 128,-1,17
 549 895 549 895 504 895 c 256,18,19
 459 895 459 895 431.5 867.5 c 128,-1,20
 404 840 404 840 404 795 c 256,21,22
 404 750 404 750 431.5 723 c 128,-1,23
 459 696 459 696 504 695 c 0,12,13
504 395 m 0,24,25
 549 395 549 395 576.5 422.5 c 128,-1,26
 604 450 604 450 604 495 c 256,27,28
 604 540 604 540 576.5 567.5 c 128,-1,29
 549 595 549 595 504 595 c 256,30,31
 459 595 459 595 431.5 567.5 c 128,-1,32
 404 540 404 540 404 495 c 256,33,34
 404 450 404 450 431.5 423 c 128,-1,35
 459 396 459 396 504 395 c 0,24,25
EndSplineSet
EndChar

StartChar: k
Encoding: 107 107 61
Width: 798
Flags: W
LayerCount: 2
Fore
SplineSet
204 100 m 0,0,1
 159 101 159 101 131.5 128 c 128,-1,2
 104 155 104 155 104 200 c 256,3,4
 104 245 104 245 131.5 271 c 128,-1,5
 159 297 159 297 204 297 c 256,6,7
 249 297 249 297 276.5 271 c 128,-1,8
 304 245 304 245 304 200 c 256,9,10
 304 155 304 155 276.5 127.5 c 128,-1,11
 249 100 249 100 204 100 c 0,0,1
204 698 m 0,12,13
 159 699 159 699 131.5 726 c 128,-1,14
 104 753 104 753 104 798 c 256,15,16
 104 843 104 843 131.5 870.5 c 128,-1,17
 159 898 159 898 204 898 c 256,18,19
 249 898 249 898 276.5 870.5 c 128,-1,20
 304 843 304 843 304 798 c 256,21,22
 304 753 304 753 276.5 725.5 c 128,-1,23
 249 698 249 698 204 698 c 0,12,13
EndSplineSet
EndChar

StartChar: l
Encoding: 108 108 62
Width: 802
Flags: W
LayerCount: 2
Fore
SplineSet
207 399 m 0,0,1
 162 400 162 400 134.5 427 c 128,-1,2
 107 454 107 454 107 499 c 256,3,4
 107 544 107 544 134.5 571.5 c 128,-1,5
 162 599 162 599 207 599 c 256,6,7
 252 599 252 599 279.5 571.5 c 128,-1,8
 307 544 307 544 307 499 c 256,9,10
 307 454 307 454 279.5 426.5 c 128,-1,11
 252 399 252 399 207 399 c 0,0,1
207 103 m 0,12,13
 162 104 162 104 134.5 131 c 128,-1,14
 107 158 107 158 107 203 c 256,15,16
 107 248 107 248 134.5 273 c 128,-1,17
 162 298 162 298 207 298 c 256,18,19
 252 298 252 298 279.5 273 c 128,-1,20
 307 248 307 248 307 203 c 256,21,22
 307 158 307 158 279.5 130.5 c 128,-1,23
 252 103 252 103 207 103 c 0,12,13
207 699 m 0,24,25
 162 700 162 700 134.5 727 c 128,-1,26
 107 754 107 754 107 799 c 256,27,28
 107 844 107 844 134.5 871.5 c 128,-1,29
 162 899 162 899 207 899 c 256,30,31
 252 899 252 899 279.5 871.5 c 128,-1,32
 307 844 307 844 307 799 c 256,33,34
 307 754 307 754 279.5 726.5 c 128,-1,35
 252 699 252 699 207 699 c 0,24,25
EndSplineSet
EndChar

StartChar: m
Encoding: 109 109 63
Width: 802
Flags: W
LayerCount: 2
Fore
SplineSet
204 103 m 0,0,1
 159 104 159 104 131.5 131 c 128,-1,2
 104 158 104 158 104 203 c 256,3,4
 104 248 104 248 131.5 274 c 128,-1,5
 159 300 159 300 204 300 c 256,6,7
 249 300 249 300 276.5 274 c 128,-1,8
 304 248 304 248 304 203 c 256,9,10
 304 158 304 158 276.5 130.5 c 128,-1,11
 249 103 249 103 204 103 c 0,0,1
504 701 m 0,12,13
 459 702 459 702 431.5 729 c 128,-1,14
 404 756 404 756 404 801 c 256,15,16
 404 846 404 846 431.5 873.5 c 128,-1,17
 459 901 459 901 504 901 c 256,18,19
 549 901 549 901 576.5 873.5 c 128,-1,20
 604 846 604 846 604 801 c 256,21,22
 604 756 604 756 576.5 728.5 c 128,-1,23
 549 701 549 701 504 701 c 0,12,13
204 701 m 0,24,25
 159 702 159 702 131.5 729 c 128,-1,26
 104 756 104 756 104 801 c 256,27,28
 104 846 104 846 131.5 873.5 c 128,-1,29
 159 901 159 901 204 901 c 256,30,31
 249 901 249 901 276.5 873.5 c 128,-1,32
 304 846 304 846 304 801 c 256,33,34
 304 756 304 756 276.5 728.5 c 128,-1,35
 249 701 249 701 204 701 c 0,24,25
EndSplineSet
EndChar

StartChar: n
Encoding: 110 110 64
Width: 802
Flags: W
LayerCount: 2
Fore
SplineSet
204 99 m 0,0,1
 159 100 159 100 131.5 127 c 128,-1,2
 104 154 104 154 104 199 c 256,3,4
 104 244 104 244 131.5 270 c 128,-1,5
 159 296 159 296 204 296 c 256,6,7
 249 296 249 296 276.5 270 c 128,-1,8
 304 244 304 244 304 199 c 256,9,10
 304 154 304 154 276.5 126.5 c 128,-1,11
 249 99 249 99 204 99 c 0,0,1
504 697 m 0,12,13
 459 698 459 698 431.5 725 c 128,-1,14
 404 752 404 752 404 797 c 256,15,16
 404 842 404 842 431.5 869.5 c 128,-1,17
 459 897 459 897 504 897 c 256,18,19
 549 897 549 897 576.5 869.5 c 128,-1,20
 604 842 604 842 604 797 c 256,21,22
 604 752 604 752 576.5 724.5 c 128,-1,23
 549 697 549 697 504 697 c 0,12,13
504 397 m 0,24,25
 459 398 459 398 431.5 425 c 128,-1,26
 404 452 404 452 404 497 c 256,27,28
 404 542 404 542 431.5 569.5 c 128,-1,29
 459 597 459 597 504 597 c 256,30,31
 549 597 549 597 576.5 569.5 c 128,-1,32
 604 542 604 542 604 497 c 256,33,34
 604 452 604 452 576.5 424.5 c 128,-1,35
 549 397 549 397 504 397 c 0,24,25
204 697 m 0,36,37
 159 698 159 698 131.5 725 c 128,-1,38
 104 752 104 752 104 797 c 256,39,40
 104 842 104 842 131.5 869.5 c 128,-1,41
 159 897 159 897 204 897 c 256,42,43
 249 897 249 897 276.5 869.5 c 128,-1,44
 304 842 304 842 304 797 c 256,45,46
 304 752 304 752 276.5 724.5 c 128,-1,47
 249 697 249 697 204 697 c 0,36,37
EndSplineSet
EndChar

StartChar: o
Encoding: 111 111 65
Width: 798
Flags: W
LayerCount: 2
Fore
SplineSet
201 101 m 0,0,1
 156 102 156 102 128.5 129 c 128,-1,2
 101 156 101 156 101 201 c 256,3,4
 101 246 101 246 128.5 272 c 128,-1,5
 156 298 156 298 201 298 c 256,6,7
 246 298 246 298 273.5 272 c 128,-1,8
 301 246 301 246 301 201 c 256,9,10
 301 156 301 156 273.5 128.5 c 128,-1,11
 246 101 246 101 201 101 c 0,0,1
501 399 m 0,12,13
 456 400 456 400 428.5 427 c 128,-1,14
 401 454 401 454 401 499 c 256,15,16
 401 544 401 544 428.5 571.5 c 128,-1,17
 456 599 456 599 501 599 c 256,18,19
 546 599 546 599 573.5 571.5 c 128,-1,20
 601 544 601 544 601 499 c 256,21,22
 601 454 601 454 573.5 426.5 c 128,-1,23
 546 399 546 399 501 399 c 0,12,13
201 699 m 0,24,25
 156 700 156 700 128.5 727 c 128,-1,26
 101 754 101 754 101 799 c 256,27,28
 101 844 101 844 128.5 871.5 c 128,-1,29
 156 899 156 899 201 899 c 256,30,31
 246 899 246 899 273.5 871.5 c 128,-1,32
 301 844 301 844 301 799 c 256,33,34
 301 754 301 754 273.5 726.5 c 128,-1,35
 246 699 246 699 201 699 c 0,24,25
EndSplineSet
EndChar

StartChar: p
Encoding: 112 112 66
Width: 802
Flags: W
LayerCount: 2
Fore
SplineSet
200 395 m 0,0,1
 245 395 245 395 272.5 422.5 c 128,-1,2
 300 450 300 450 300 495 c 256,3,4
 300 540 300 540 272.5 567.5 c 128,-1,5
 245 595 245 595 200 595 c 256,6,7
 155 595 155 595 127.5 567.5 c 128,-1,8
 100 540 100 540 100 495 c 256,9,10
 100 450 100 450 127.5 423 c 128,-1,11
 155 396 155 396 200 395 c 0,0,1
200 97 m 0,12,13
 245 97 245 97 272.5 124.5 c 128,-1,14
 300 152 300 152 300 197 c 256,15,16
 300 242 300 242 272.5 268 c 128,-1,17
 245 294 245 294 200 294 c 256,18,19
 155 294 155 294 127.5 268 c 128,-1,20
 100 242 100 242 100 197 c 256,21,22
 100 152 100 152 127.5 125 c 128,-1,23
 155 98 155 98 200 97 c 0,12,13
500 695 m 0,24,25
 545 695 545 695 572.5 722.5 c 128,-1,26
 600 750 600 750 600 795 c 256,27,28
 600 840 600 840 572.5 867.5 c 128,-1,29
 545 895 545 895 500 895 c 256,30,31
 455 895 455 895 427.5 867.5 c 128,-1,32
 400 840 400 840 400 795 c 256,33,34
 400 750 400 750 427.5 723 c 128,-1,35
 455 696 455 696 500 695 c 0,24,25
200 695 m 0,36,37
 245 695 245 695 272.5 722.5 c 128,-1,38
 300 750 300 750 300 795 c 256,39,40
 300 840 300 840 272.5 867.5 c 128,-1,41
 245 895 245 895 200 895 c 256,42,43
 155 895 155 895 127.5 867.5 c 128,-1,44
 100 840 100 840 100 795 c 256,45,46
 100 750 100 750 127.5 723 c 128,-1,47
 155 696 155 696 200 695 c 0,36,37
EndSplineSet
EndChar

StartChar: q
Encoding: 113 113 67
Width: 798
Flags: W
LayerCount: 2
Fore
SplineSet
197 395 m 0,0,1
 242 395 242 395 269.5 422.5 c 128,-1,2
 297 450 297 450 297 495 c 256,3,4
 297 540 297 540 269.5 567.5 c 128,-1,5
 242 595 242 595 197 595 c 256,6,7
 152 595 152 595 124.5 567.5 c 128,-1,8
 97 540 97 540 97 495 c 256,9,10
 97 450 97 450 124.5 423 c 128,-1,11
 152 396 152 396 197 395 c 0,0,1
197 97 m 0,12,13
 242 97 242 97 269.5 124.5 c 128,-1,14
 297 152 297 152 297 197 c 256,15,16
 297 242 297 242 269.5 268 c 128,-1,17
 242 294 242 294 197 294 c 256,18,19
 152 294 152 294 124.5 268 c 128,-1,20
 97 242 97 242 97 197 c 256,21,22
 97 152 97 152 124.5 125 c 128,-1,23
 152 98 152 98 197 97 c 0,12,13
497 695 m 0,24,25
 542 695 542 695 569.5 722.5 c 128,-1,26
 597 750 597 750 597 795 c 256,27,28
 597 840 597 840 569.5 867.5 c 128,-1,29
 542 895 542 895 497 895 c 256,30,31
 452 895 452 895 424.5 867.5 c 128,-1,32
 397 840 397 840 397 795 c 256,33,34
 397 750 397 750 424.5 723 c 128,-1,35
 452 696 452 696 497 695 c 0,24,25
497 395 m 0,36,37
 542 395 542 395 569.5 422.5 c 128,-1,38
 597 450 597 450 597 495 c 256,39,40
 597 540 597 540 569.5 567.5 c 128,-1,41
 542 595 542 595 497 595 c 256,42,43
 452 595 452 595 424.5 567.5 c 128,-1,44
 397 540 397 540 397 495 c 256,45,46
 397 450 397 450 424.5 423 c 128,-1,47
 452 396 452 396 497 395 c 0,36,37
197 695 m 0,48,49
 242 695 242 695 269.5 722.5 c 128,-1,50
 297 750 297 750 297 795 c 256,51,52
 297 840 297 840 269.5 867.5 c 128,-1,53
 242 895 242 895 197 895 c 256,54,55
 152 895 152 895 124.5 867.5 c 128,-1,56
 97 840 97 840 97 795 c 256,57,58
 97 750 97 750 124.5 723 c 128,-1,59
 152 696 152 696 197 695 c 0,48,49
EndSplineSet
EndChar

StartChar: r
Encoding: 114 114 68
Width: 802
Flags: W
LayerCount: 2
Fore
SplineSet
200 397 m 0,0,1
 245 397 245 397 272.5 424.5 c 128,-1,2
 300 452 300 452 300 497 c 256,3,4
 300 542 300 542 272.5 569.5 c 128,-1,5
 245 597 245 597 200 597 c 256,6,7
 155 597 155 597 127.5 569.5 c 128,-1,8
 100 542 100 542 100 497 c 256,9,10
 100 452 100 452 127.5 425 c 128,-1,11
 155 398 155 398 200 397 c 0,0,1
200 101 m 0,12,13
 245 101 245 101 272.5 128.5 c 128,-1,14
 300 156 300 156 300 201 c 256,15,16
 300 246 300 246 272.5 271 c 128,-1,17
 245 296 245 296 200 296 c 256,18,19
 155 296 155 296 127.5 271 c 128,-1,20
 100 246 100 246 100 201 c 256,21,22
 100 156 100 156 127.5 129 c 128,-1,23
 155 102 155 102 200 101 c 0,12,13
500 397 m 0,24,25
 545 397 545 397 572.5 424.5 c 128,-1,26
 600 452 600 452 600 497 c 256,27,28
 600 542 600 542 572.5 569.5 c 128,-1,29
 545 597 545 597 500 597 c 256,30,31
 455 597 455 597 427.5 569.5 c 128,-1,32
 400 542 400 542 400 497 c 256,33,34
 400 452 400 452 427.5 425 c 128,-1,35
 455 398 455 398 500 397 c 0,24,25
200 697 m 0,36,37
 245 697 245 697 272.5 724.5 c 128,-1,38
 300 752 300 752 300 797 c 256,39,40
 300 842 300 842 272.5 869.5 c 128,-1,41
 245 897 245 897 200 897 c 256,42,43
 155 897 155 897 127.5 869.5 c 128,-1,44
 100 842 100 842 100 797 c 256,45,46
 100 752 100 752 127.5 725 c 128,-1,47
 155 698 155 698 200 697 c 0,36,37
EndSplineSet
EndChar

StartChar: s
Encoding: 115 115 69
Width: 802
Flags: W
LayerCount: 2
Fore
SplineSet
201 402 m 0,0,1
 246 402 246 402 273.5 429.5 c 128,-1,2
 301 457 301 457 301 502 c 256,3,4
 301 547 301 547 273.5 574.5 c 128,-1,5
 246 602 246 602 201 602 c 256,6,7
 156 602 156 602 128.5 574.5 c 128,-1,8
 101 547 101 547 101 502 c 256,9,10
 101 457 101 457 128.5 430 c 128,-1,11
 156 403 156 403 201 402 c 0,0,1
201 104 m 0,12,13
 246 104 246 104 273.5 131.5 c 128,-1,14
 301 159 301 159 301 204 c 256,15,16
 301 249 301 249 273.5 275 c 128,-1,17
 246 301 246 301 201 301 c 256,18,19
 156 301 156 301 128.5 275 c 128,-1,20
 101 249 101 249 101 204 c 256,21,22
 101 159 101 159 128.5 132 c 128,-1,23
 156 105 156 105 201 104 c 0,12,13
501 702 m 0,24,25
 546 702 546 702 573.5 729.5 c 128,-1,26
 601 757 601 757 601 802 c 256,27,28
 601 847 601 847 573.5 874.5 c 128,-1,29
 546 902 546 902 501 902 c 256,30,31
 456 902 456 902 428.5 874.5 c 128,-1,32
 401 847 401 847 401 802 c 256,33,34
 401 757 401 757 428.5 730 c 128,-1,35
 456 703 456 703 501 702 c 0,24,25
EndSplineSet
EndChar

StartChar: t
Encoding: 116 116 70
Width: 794
Flags: W
LayerCount: 2
Fore
SplineSet
204 398 m 0,0,1
 249 398 249 398 276.5 425.5 c 128,-1,2
 304 453 304 453 304 498 c 256,3,4
 304 543 304 543 276.5 570.5 c 128,-1,5
 249 598 249 598 204 598 c 256,6,7
 159 598 159 598 131.5 570.5 c 128,-1,8
 104 543 104 543 104 498 c 256,9,10
 104 453 104 453 131.5 426 c 128,-1,11
 159 399 159 399 204 398 c 0,0,1
204 100 m 0,12,13
 249 100 249 100 276.5 127.5 c 128,-1,14
 304 155 304 155 304 200 c 256,15,16
 304 245 304 245 276.5 271 c 128,-1,17
 249 297 249 297 204 297 c 256,18,19
 159 297 159 297 131.5 271 c 128,-1,20
 104 245 104 245 104 200 c 256,21,22
 104 155 104 155 131.5 128 c 128,-1,23
 159 101 159 101 204 100 c 0,12,13
504 698 m 0,24,25
 549 698 549 698 576.5 725.5 c 128,-1,26
 604 753 604 753 604 798 c 256,27,28
 604 843 604 843 576.5 870.5 c 128,-1,29
 549 898 549 898 504 898 c 256,30,31
 459 898 459 898 431.5 870.5 c 128,-1,32
 404 843 404 843 404 798 c 256,33,34
 404 753 404 753 431.5 726 c 128,-1,35
 459 699 459 699 504 698 c 0,24,25
504 398 m 0,36,37
 549 398 549 398 576.5 425.5 c 128,-1,38
 604 453 604 453 604 498 c 256,39,40
 604 543 604 543 576.5 570.5 c 128,-1,41
 549 598 549 598 504 598 c 256,42,43
 459 598 459 598 431.5 570.5 c 128,-1,44
 404 543 404 543 404 498 c 256,45,46
 404 453 404 453 431.5 426 c 128,-1,47
 459 399 459 399 504 398 c 0,36,37
EndSplineSet
EndChar

StartChar: u
Encoding: 117 117 71
Width: 802
Flags: W
LayerCount: 2
Fore
SplineSet
201 101 m 0,0,1
 246 101 246 101 273.5 128.5 c 128,-1,2
 301 156 301 156 301 201 c 256,3,4
 301 246 301 246 273.5 272 c 128,-1,5
 246 298 246 298 201 298 c 256,6,7
 156 298 156 298 128.5 272 c 128,-1,8
 101 246 101 246 101 201 c 256,9,10
 101 156 101 156 128.5 129 c 128,-1,11
 156 102 156 102 201 101 c 0,0,1
501 102 m 0,12,13
 546 102 546 102 573.5 129.5 c 128,-1,14
 601 157 601 157 601 202 c 256,15,16
 601 247 601 247 573.5 273 c 128,-1,17
 546 299 546 299 501 299 c 256,18,19
 456 299 456 299 428.5 273 c 128,-1,20
 401 247 401 247 401 202 c 256,21,22
 401 157 401 157 428.5 130 c 128,-1,23
 456 103 456 103 501 102 c 0,12,13
201 699 m 0,24,25
 246 699 246 699 273.5 726.5 c 128,-1,26
 301 754 301 754 301 799 c 256,27,28
 301 844 301 844 273.5 871.5 c 128,-1,29
 246 899 246 899 201 899 c 256,30,31
 156 899 156 899 128.5 871.5 c 128,-1,32
 101 844 101 844 101 799 c 256,33,34
 101 754 101 754 128.5 727 c 128,-1,35
 156 700 156 700 201 699 c 0,24,25
EndSplineSet
EndChar

StartChar: v
Encoding: 118 118 72
Width: 802
Flags: W
LayerCount: 2
Fore
SplineSet
201 402 m 0,0,1
 246 402 246 402 273.5 429.5 c 128,-1,2
 301 457 301 457 301 502 c 256,3,4
 301 547 301 547 273.5 574.5 c 128,-1,5
 246 602 246 602 201 602 c 256,6,7
 156 602 156 602 128.5 574.5 c 128,-1,8
 101 547 101 547 101 502 c 256,9,10
 101 457 101 457 128.5 430 c 128,-1,11
 156 403 156 403 201 402 c 0,0,1
201 104 m 0,12,13
 246 104 246 104 273.5 131.5 c 128,-1,14
 301 159 301 159 301 204 c 256,15,16
 301 249 301 249 273.5 275 c 128,-1,17
 246 301 246 301 201 301 c 256,18,19
 156 301 156 301 128.5 275 c 128,-1,20
 101 249 101 249 101 204 c 256,21,22
 101 159 101 159 128.5 132 c 128,-1,23
 156 105 156 105 201 104 c 0,12,13
501 105 m 0,24,25
 546 105 546 105 573.5 132.5 c 128,-1,26
 601 160 601 160 601 205 c 256,27,28
 601 250 601 250 573.5 276 c 128,-1,29
 546 302 546 302 501 302 c 256,30,31
 456 302 456 302 428.5 276 c 128,-1,32
 401 250 401 250 401 205 c 256,33,34
 401 160 401 160 428.5 133 c 128,-1,35
 456 106 456 106 501 105 c 0,24,25
201 702 m 0,36,37
 246 702 246 702 273.5 729.5 c 128,-1,38
 301 757 301 757 301 802 c 256,39,40
 301 847 301 847 273.5 874.5 c 128,-1,41
 246 902 246 902 201 902 c 256,42,43
 156 902 156 902 128.5 874.5 c 128,-1,44
 101 847 101 847 101 802 c 256,45,46
 101 757 101 757 128.5 730 c 128,-1,47
 156 703 156 703 201 702 c 0,36,37
EndSplineSet
EndChar

StartChar: w
Encoding: 119 119 73
Width: 802
Flags: W
LayerCount: 2
Fore
SplineSet
200 399 m 0,0,1
 245 399 245 399 272.5 426.5 c 128,-1,2
 300 454 300 454 300 499 c 256,3,4
 300 544 300 544 272.5 571.5 c 128,-1,5
 245 599 245 599 200 599 c 256,6,7
 155 599 155 599 127.5 571.5 c 128,-1,8
 100 544 100 544 100 499 c 256,9,10
 100 454 100 454 127.5 427 c 128,-1,11
 155 400 155 400 200 399 c 0,0,1
500 699 m 0,12,13
 545 699 545 699 572.5 726.5 c 128,-1,14
 600 754 600 754 600 799 c 256,15,16
 600 844 600 844 572.5 871.5 c 128,-1,17
 545 899 545 899 500 899 c 256,18,19
 455 899 455 899 427.5 871.5 c 128,-1,20
 400 844 400 844 400 799 c 256,21,22
 400 754 400 754 427.5 727 c 128,-1,23
 455 700 455 700 500 699 c 0,12,13
500 399 m 0,24,25
 545 399 545 399 572.5 426.5 c 128,-1,26
 600 454 600 454 600 499 c 256,27,28
 600 544 600 544 572.5 571.5 c 128,-1,29
 545 599 545 599 500 599 c 256,30,31
 455 599 455 599 427.5 571.5 c 128,-1,32
 400 544 400 544 400 499 c 256,33,34
 400 454 400 454 427.5 427 c 128,-1,35
 455 400 455 400 500 399 c 0,24,25
500 103 m 0,36,37
 545 103 545 103 572.5 130 c 128,-1,38
 600 157 600 157 600 202 c 256,39,40
 600 247 600 247 572.5 273 c 128,-1,41
 545 299 545 299 500 299 c 256,42,43
 455 299 455 299 427.5 273 c 128,-1,44
 400 247 400 247 400 202 c 256,45,46
 400 157 400 157 427.5 130.5 c 128,-1,47
 455 104 455 104 500 103 c 0,36,37
EndSplineSet
EndChar

StartChar: x
Encoding: 120 120 74
Width: 798
Flags: W
LayerCount: 2
Fore
SplineSet
201 101 m 0,0,1
 246 101 246 101 273.5 128.5 c 128,-1,2
 301 156 301 156 301 201 c 256,3,4
 301 246 301 246 273.5 272 c 128,-1,5
 246 298 246 298 201 298 c 256,6,7
 156 298 156 298 128.5 272 c 128,-1,8
 101 246 101 246 101 201 c 256,9,10
 101 156 101 156 128.5 129 c 128,-1,11
 156 102 156 102 201 101 c 0,0,1
501 699 m 0,12,13
 546 699 546 699 573.5 726.5 c 128,-1,14
 601 754 601 754 601 799 c 256,15,16
 601 844 601 844 573.5 871.5 c 128,-1,17
 546 899 546 899 501 899 c 256,18,19
 456 899 456 899 428.5 871.5 c 128,-1,20
 401 844 401 844 401 799 c 256,21,22
 401 754 401 754 428.5 727 c 128,-1,23
 456 700 456 700 501 699 c 0,12,13
501 102 m 0,24,25
 546 102 546 102 573.5 129.5 c 128,-1,26
 601 157 601 157 601 202 c 256,27,28
 601 247 601 247 573.5 273 c 128,-1,29
 546 299 546 299 501 299 c 256,30,31
 456 299 456 299 428.5 273 c 128,-1,32
 401 247 401 247 401 202 c 256,33,34
 401 157 401 157 428.5 130 c 128,-1,35
 456 103 456 103 501 102 c 0,24,25
201 699 m 0,36,37
 246 699 246 699 273.5 726.5 c 128,-1,38
 301 754 301 754 301 799 c 256,39,40
 301 844 301 844 273.5 871.5 c 128,-1,41
 246 899 246 899 201 899 c 256,42,43
 156 899 156 899 128.5 871.5 c 128,-1,44
 101 844 101 844 101 799 c 256,45,46
 101 754 101 754 128.5 727 c 128,-1,47
 156 700 156 700 201 699 c 0,36,37
EndSplineSet
EndChar

StartChar: y
Encoding: 121 121 75
Width: 802
Flags: W
LayerCount: 2
Fore
SplineSet
200 102 m 0,0,1
 245 102 245 102 272.5 129 c 128,-1,2
 300 156 300 156 300 201 c 256,3,4
 300 246 300 246 272.5 272 c 128,-1,5
 245 298 245 298 200 298 c 256,6,7
 155 298 155 298 127.5 272 c 128,-1,8
 100 246 100 246 100 201 c 256,9,10
 100 156 100 156 127.5 129.5 c 128,-1,11
 155 103 155 103 200 102 c 0,0,1
500 699 m 0,12,13
 545 699 545 699 572.5 726.5 c 128,-1,14
 600 754 600 754 600 799 c 256,15,16
 600 844 600 844 572.5 871.5 c 128,-1,17
 545 899 545 899 500 899 c 256,18,19
 455 899 455 899 427.5 871.5 c 128,-1,20
 400 844 400 844 400 799 c 256,21,22
 400 754 400 754 427.5 727 c 128,-1,23
 455 700 455 700 500 699 c 0,12,13
500 399 m 0,24,25
 545 399 545 399 572.5 426.5 c 128,-1,26
 600 454 600 454 600 499 c 256,27,28
 600 544 600 544 572.5 571.5 c 128,-1,29
 545 599 545 599 500 599 c 256,30,31
 455 599 455 599 427.5 571.5 c 128,-1,32
 400 544 400 544 400 499 c 256,33,34
 400 454 400 454 427.5 427 c 128,-1,35
 455 400 455 400 500 399 c 0,24,25
500 103 m 0,36,37
 545 103 545 103 572.5 130 c 128,-1,38
 600 157 600 157 600 202 c 256,39,40
 600 247 600 247 572.5 273 c 128,-1,41
 545 299 545 299 500 299 c 256,42,43
 455 299 455 299 427.5 273 c 128,-1,44
 400 247 400 247 400 202 c 256,45,46
 400 157 400 157 427.5 130.5 c 128,-1,47
 455 104 455 104 500 103 c 0,36,37
200 699 m 0,48,49
 245 699 245 699 272.5 726.5 c 128,-1,50
 300 754 300 754 300 799 c 256,51,52
 300 844 300 844 272.5 871.5 c 128,-1,53
 245 899 245 899 200 899 c 256,54,55
 155 899 155 899 127.5 871.5 c 128,-1,56
 100 844 100 844 100 799 c 256,57,58
 100 754 100 754 127.5 727 c 128,-1,59
 155 700 155 700 200 699 c 0,48,49
EndSplineSet
EndChar

StartChar: z
Encoding: 122 122 76
Width: 802
Flags: W
LayerCount: 2
Fore
SplineSet
204 99 m 0,0,1
 249 99 249 99 276.5 126 c 128,-1,2
 304 153 304 153 304 198 c 256,3,4
 304 243 304 243 276.5 269 c 128,-1,5
 249 295 249 295 204 295 c 256,6,7
 159 295 159 295 131.5 269 c 128,-1,8
 104 243 104 243 104 198 c 256,9,10
 104 153 104 153 131.5 126.5 c 128,-1,11
 159 100 159 100 204 99 c 0,0,1
504 396 m 0,12,13
 549 396 549 396 576.5 423.5 c 128,-1,14
 604 451 604 451 604 496 c 256,15,16
 604 541 604 541 576.5 568.5 c 128,-1,17
 549 596 549 596 504 596 c 256,18,19
 459 596 459 596 431.5 568.5 c 128,-1,20
 404 541 404 541 404 496 c 256,21,22
 404 451 404 451 431.5 424 c 128,-1,23
 459 397 459 397 504 396 c 0,12,13
504 100 m 0,24,25
 549 100 549 100 576.5 127 c 128,-1,26
 604 154 604 154 604 199 c 256,27,28
 604 244 604 244 576.5 270 c 128,-1,29
 549 296 549 296 504 296 c 256,30,31
 459 296 459 296 431.5 270 c 128,-1,32
 404 244 404 244 404 199 c 256,33,34
 404 154 404 154 431.5 127.5 c 128,-1,35
 459 101 459 101 504 100 c 0,24,25
204 696 m 0,36,37
 249 696 249 696 276.5 723.5 c 128,-1,38
 304 751 304 751 304 796 c 256,39,40
 304 841 304 841 276.5 868.5 c 128,-1,41
 249 896 249 896 204 896 c 256,42,43
 159 896 159 896 131.5 868.5 c 128,-1,44
 104 841 104 841 104 796 c 256,45,46
 104 751 104 751 131.5 724 c 128,-1,47
 159 697 159 697 204 696 c 0,36,37
EndSplineSet
EndChar

StartChar: oe
Encoding: 339 339 77
Width: 802
Flags: W
LayerCount: 2
Fore
SplineSet
200 399 m 0,0,1
 245 399 245 399 272.5 426.5 c 128,-1,2
 300 454 300 454 300 499 c 256,3,4
 300 544 300 544 272.5 571.5 c 128,-1,5
 245 599 245 599 200 599 c 256,6,7
 155 599 155 599 127.5 571.5 c 128,-1,8
 100 544 100 544 100 499 c 256,9,10
 100 454 100 454 127.5 427 c 128,-1,11
 155 400 155 400 200 399 c 0,0,1
500 699 m 0,12,13
 545 699 545 699 572.5 726.5 c 128,-1,14
 600 754 600 754 600 799 c 256,15,16
 600 844 600 844 572.5 871.5 c 128,-1,17
 545 899 545 899 500 899 c 256,18,19
 455 899 455 899 427.5 871.5 c 128,-1,20
 400 844 400 844 400 799 c 256,21,22
 400 754 400 754 427.5 727 c 128,-1,23
 455 700 455 700 500 699 c 0,12,13
500 103 m 0,24,25
 545 103 545 103 572.5 130 c 128,-1,26
 600 157 600 157 600 202 c 256,27,28
 600 247 600 247 572.5 273 c 128,-1,29
 545 299 545 299 500 299 c 256,30,31
 455 299 455 299 427.5 273 c 128,-1,32
 400 247 400 247 400 202 c 256,33,34
 400 157 400 157 427.5 130.5 c 128,-1,35
 455 104 455 104 500 103 c 0,24,25
EndSplineSet
EndChar

StartChar: section
Encoding: 167 167 78
Width: 1301
Flags: W
LayerCount: 2
Fore
SplineSet
137 722 m 1,0,-1
 137 56 l 1,1,-1
 1158 56 l 1,2,-1
 1158 722 l 1,3,-1
 137 722 l 1,0,-1
202 277 m 1,4,-1
 202 344 l 1,5,-1
 219 358 l 1,6,-1
 250 358 l 1,7,-1
 260 334 l 1,8,-1
 260 277 l 1,9,-1
 242 263 l 1,10,-1
 219 263 l 1,11,-1
 202 277 l 1,4,-1
278 277 m 1,12,-1
 278 287 l 1,13,-1
 289 287 l 1,14,-1
 301 277 l 1,15,-1
 318 277 l 1,16,-1
 318 316 l 1,17,-1
 276 316 l 1,18,-1
 286 358 l 1,19,-1
 330 358 l 1,20,-1
 330 349 l 1,21,-1
 301 344 l 1,22,-1
 301 330 l 1,23,-1
 324 330 l 1,24,-1
 336 311 l 1,25,-1
 336 277 l 1,26,-1
 318 263 l 1,27,-1
 296 263 l 1,28,-1
 278 277 l 1,12,-1
409 263 m 1,29,-1
 394 287 l 1,30,-1
 394 340 l 1,31,-1
 418 358 l 1,32,-1
 444 358 l 1,33,-1
 455 340 l 1,34,-1
 442 340 l 1,35,-1
 421 349 l 1,36,-1
 413 334 l 1,37,-1
 413 325 l 1,38,-1
 442 325 l 1,39,-1
 452 306 l 1,40,-1
 452 277 l 1,41,-1
 435 263 l 1,42,-1
 409 263 l 1,29,-1
890 277 m 1,43,-1
 856 283 l 1,44,-1
 856 302 l 1,45,-1
 896 358 l 1,46,-1
 908 358 l 1,47,-1
 914 296 l 1,48,-1
 920 292 l 1,49,-1
 920 283 l 1,50,-1
 914 277 l 1,51,-1
 908 263 l 1,52,-1
 896 263 l 1,53,-1
 890 277 l 1,43,-1
973 277 m 1,54,-1
 973 344 l 1,55,-1
 990 358 l 1,56,-1
 1021 358 l 1,57,-1
 1031 334 l 1,58,-1
 1031 277 l 1,59,-1
 1012 263 l 1,60,-1
 990 263 l 1,61,-1
 973 277 l 1,54,-1
1049 277 m 1,62,-1
 1049 344 l 1,63,-1
 1066 358 l 1,64,-1
 1097 358 l 1,65,-1
 1106 334 l 1,66,-1
 1106 277 l 1,67,-1
 1089 263 l 1,68,-1
 1066 263 l 1,69,-1
 1049 277 l 1,62,-1
219 277 m 1,70,-1
 242 277 l 1,71,-1
 242 344 l 1,72,-1
 219 344 l 1,73,-1
 219 277 l 1,70,-1
413 277 m 1,74,-1
 435 277 l 1,75,-1
 435 311 l 1,76,-1
 413 311 l 1,77,-1
 413 277 l 1,74,-1
990 277 m 1,78,-1
 1012 277 l 1,79,-1
 1012 344 l 1,80,-1
 990 344 l 1,81,-1
 990 277 l 1,78,-1
1066 277 m 1,82,-1
 1089 277 l 1,83,-1
 1089 344 l 1,84,-1
 1066 344 l 1,85,-1
 1066 277 l 1,82,-1
890 325 m 1,86,-1
 873 296 l 1,87,-1
 890 296 l 1,88,-1
 890 325 l 1,86,-1
339 454 m 1,89,-1
 324 479 l 1,90,-1
 324 518 l 1,91,-1
 352 542 l 1,92,-1
 393 542 l 1,93,-1
 422 518 l 1,94,-1
 422 470 l 1,95,-1
 393 446 l 1,96,-1
 358 446 l 1,97,-1
 339 454 l 1,89,-1
345 465 m 1,98,-1
 364 456 l 1,99,-1
 388 456 l 1,100,-1
 411 475 l 1,101,-1
 411 513 l 1,102,-1
 388 532 l 1,103,-1
 358 532 l 1,104,-1
 335 513 l 1,105,-1
 335 479 l 1,106,-1
 345 465 l 1,98,-1
352 479 m 1,107,-1
 352 508 l 1,108,-1
 364 518 l 1,109,-1
 382 518 l 1,110,-1
 393 508 l 1,111,-1
 393 501 l 1,112,-1
 372 510 l 1,113,-1
 364 504 l 1,114,-1
 364 479 l 1,115,-1
 376 479 l 1,116,-1
 388 485 l 1,117,-1
 393 479 l 1,118,-1
 382 470 l 1,119,-1
 364 470 l 1,120,-1
 352 479 l 1,107,-1
559 474 m 1,121,-1
 535 468 l 1,122,-1
 535 477 l 1,123,-1
 559 497 l 1,124,-1
 565 505 l 1,125,-1
 576 505 l 1,126,-1
 576 411 l 1,127,-1
 560 411 l 1,128,-1
 559 474 l 1,121,-1
612 418 m 1,129,-1
 612 429 l 1,130,-1
 623 429 l 1,131,-1
 645 420 l 1,132,-1
 653 434 l 1,133,-1
 653 443 l 1,134,-1
 623 443 l 1,135,-1
 612 462 l 1,136,-1
 612 491 l 1,137,-1
 615 505 l 1,138,-1
 669 505 l 1,139,-1
 670 481 l 1,140,-1
 670 429 l 1,141,-1
 646 411 l 1,142,-1
 629 411 l 1,143,-1
 612 418 l 1,129,-1
687 418 m 1,144,-1
 687 429 l 1,145,-1
 699 429 l 1,146,-1
 720 420 l 1,147,-1
 729 434 l 1,148,-1
 729 443 l 1,149,-1
 699 443 l 1,150,-1
 687 462 l 1,151,-1
 687 491 l 1,152,-1
 690 505 l 1,153,-1
 745 505 l 1,154,-1
 746 481 l 1,155,-1
 746 429 l 1,156,-1
 723 411 l 1,157,-1
 704 411 l 1,158,-1
 687 418 l 1,144,-1
763 425 m 1,159,-1
 763 449 l 1,160,-1
 770 462 l 1,161,-1
 760 486 l 1,162,-1
 771 505 l 1,163,-1
 813 505 l 1,164,-1
 827 484 l 1,165,-1
 816 468 l 1,166,-1
 809 462 l 1,167,-1
 822 453 l 1,168,-1
 822 425 l 1,169,-1
 804 411 l 1,170,-1
 780 411 l 1,171,-1
 763 425 l 1,159,-1
780 425 m 1,172,-1
 804 425 l 1,173,-1
 804 453 l 1,174,-1
 780 453 l 1,175,-1
 780 425 l 1,172,-1
629 458 m 1,176,-1
 653 458 l 1,177,-1
 653 491 l 1,178,-1
 629 491 l 1,179,-1
 629 458 l 1,176,-1
704 458 m 1,180,-1
 729 458 l 1,181,-1
 729 491 l 1,182,-1
 704 491 l 1,183,-1
 704 458 l 1,180,-1
780 472 m 1,184,-1
 804 472 l 1,185,-1
 804 491 l 1,186,-1
 780 491 l 1,187,-1
 780 472 l 1,184,-1
366 198 m 1,188,-1
 431 198 l 1,189,-1
 431 186 l 1,190,-1
 384 186 l 1,191,-1
 384 158 l 1,192,-1
 425 158 l 1,193,-1
 425 143 l 1,194,-1
 382 143 l 1,195,-1
 382 102 l 1,196,-1
 366 102 l 1,197,-1
 366 198 l 1,188,-1
455 198 m 1,198,-1
 460 198 l 1,199,-1
 478 198 l 1,200,-1
 483 198 l 1,201,-1
 491 198 l 1,202,-1
 509 198 l 1,203,-1
 513 198 l 2,204,205
 514 198 514 198 518.5 196 c 128,-1,206
 523 194 523 194 525 193 c 0,207,208
 530 188 530 188 530 184 c 2,209,210
 530 184 530 184 530.5 178 c 128,-1,211
 531 172 531 172 531 169 c 0,212,213
 531 167 531 167 530.5 163.5 c 128,-1,214
 530 160 530 160 530 159 c 256,215,216
 530 158 530 158 522 152 c 128,-1,217
 514 146 514 146 513 146 c 2,218,-1
 513 143 l 1,219,-1
 513 140 l 2,220,221
 515 136 515 136 519 130.5 c 128,-1,222
 523 125 523 125 527 119.5 c 128,-1,223
 531 114 531 114 534 110.5 c 128,-1,224
 537 107 537 107 537 107 c 1,225,-1
 542 107 l 1,226,227
 544 111 544 111 549 123 c 128,-1,228
 554 135 554 135 559.5 148 c 128,-1,229
 565 161 565 161 570 172.5 c 128,-1,230
 575 184 575 184 576 187 c 0,231,232
 578 190 578 190 580.5 193.5 c 128,-1,233
 583 197 583 197 583 198 c 2,234,-1
 589 198 l 1,235,-1
 595 198 l 2,236,237
 595 197 595 197 597 193.5 c 128,-1,238
 599 190 599 190 600 187 c 2,239,-1
 635 102 l 1,240,-1
 630 102 l 1,241,-1
 624 102 l 2,242,243
 623 102 623 102 621 104 c 128,-1,244
 619 106 619 106 618 107 c 2,245,-1
 612 117 l 2,246,247
 607 122 607 122 606 122 c 2,248,-1
 589 122 l 1,249,-1
 571 122 l 1,250,251
 571 122 571 122 569 120.5 c 128,-1,252
 567 119 567 119 566 117 c 2,253,-1
 560 107 l 2,254,255
 558 106 558 106 556 104 c 128,-1,256
 554 102 554 102 553 102 c 2,257,-1
 537 102 l 1,258,-1
 519 102 l 2,259,260
 518 104 518 104 514.5 109 c 128,-1,261
 511 114 511 114 507 119.5 c 128,-1,262
 503 125 503 125 499.5 130 c 128,-1,263
 496 135 496 135 495 137 c 0,264,265
 494 138 494 138 492 139 c 128,-1,266
 490 140 490 140 490 140 c 2,267,268
 485 142 485 142 477 140 c 128,-1,269
 469 138 469 138 469 138 c 1,270,-1
 469 102 l 1,271,-1
 455 102 l 1,272,-1
 455 198 l 1,198,-1
653 198 m 1,273,-1
 659 198 l 1,274,-1
 664 198 l 2,275,276
 668 196 668 196 671 193 c 0,277,278
 673 190 673 190 678 182 c 128,-1,279
 683 174 683 174 689 165 c 128,-1,280
 695 156 695 156 700.5 148 c 128,-1,281
 706 140 706 140 708 137 c 2,282,-1
 708 198 l 1,283,-1
 723 198 l 1,284,-1
 723 100 l 2,285,286
 722 100 722 100 717.5 101 c 128,-1,287
 713 102 713 102 711 102 c 0,288,289
 710 103 710 103 708 104.5 c 128,-1,290
 706 106 706 106 705 107 c 0,291,292
 703 110 703 110 697.5 118 c 128,-1,293
 692 126 692 126 686 135.5 c 128,-1,294
 680 145 680 145 674.5 153.5 c 128,-1,295
 669 162 669 162 668 165 c 2,296,-1
 668 102 l 1,297,-1
 653 102 l 1,298,-1
 653 198 l 1,273,-1
745 150 m 256,299,300
 745 154 745 154 746 161 c 128,-1,301
 747 168 747 168 747 169 c 2,302,303
 747 169 747 169 751.5 177 c 128,-1,304
 756 185 756 185 758 187 c 0,305,306
 759 189 759 189 761 191 c 128,-1,307
 763 193 763 193 763 193 c 2,308,309
 765 194 765 194 769.5 196 c 128,-1,310
 774 198 774 198 776 198 c 2,311,-1
 789 198 l 1,312,-1
 805 198 l 2,313,314
 807 198 807 198 811 196 c 128,-1,315
 815 194 815 194 817 193 c 0,316,317
 818 193 818 193 820 191 c 128,-1,318
 822 189 822 189 822 187 c 0,319,320
 824 186 824 186 826 182.5 c 128,-1,321
 828 179 828 179 828 178 c 0,322,323
 828 175 828 175 822 174 c 2,324,325
 822 174 822 174 821 173.5 c 128,-1,326
 820 173 820 173 819 173 c 256,327,328
 818 173 818 173 817.5 173.5 c 128,-1,329
 817 174 817 174 817 174 c 2,330,331
 816 175 816 175 808 179.5 c 128,-1,332
 800 184 800 184 799 184 c 2,333,-1
 789 184 l 1,334,-1
 781 184 l 2,335,336
 777 181 777 181 770 176 c 128,-1,337
 763 171 763 171 763 169 c 2,338,-1
 763 130 l 2,339,340
 763 129 763 129 770 124 c 128,-1,341
 777 119 777 119 781 117 c 0,342,343
 782 116 782 116 785 115.5 c 128,-1,344
 788 115 788 115 789 115 c 0,345,346
 798 115 798 115 802 119 c 0,347,348
 807 121 807 121 811 125.5 c 128,-1,349
 815 130 815 130 817 130 c 2,350,351
 817 130 817 130 817.5 130.5 c 128,-1,352
 818 131 818 131 819 131 c 256,353,354
 820 131 820 131 821 130.5 c 128,-1,355
 822 130 822 130 822 130 c 2,356,357
 828 130 828 130 828 126 c 2,358,-1
 828 124 l 1,359,-1
 828 122 l 1,360,361
 824 117 824 117 815.5 110.5 c 128,-1,362
 807 104 807 104 805 102 c 2,363,-1
 792 102 l 1,364,-1
 776 102 l 2,365,366
 774 102 774 102 769.5 104 c 128,-1,367
 765 106 765 106 763 107 c 0,368,369
 763 108 763 108 761 109.5 c 128,-1,370
 759 111 759 111 758 112 c 0,371,372
 756 114 756 114 751.5 122 c 128,-1,373
 747 130 747 130 747 130 c 2,374,375
 747 132 747 132 746 139 c 128,-1,376
 745 146 745 146 745 150 c 256,299,300
851 198 m 1,377,-1
 921 198 l 1,378,-1
 921 186 l 1,379,-1
 869 186 l 1,380,-1
 869 158 l 1,381,-1
 915 158 l 1,382,-1
 915 143 l 1,383,-1
 869 143 l 1,384,-1
 869 115 l 1,385,-1
 921 115 l 1,386,-1
 921 102 l 1,387,-1
 851 102 l 1,388,-1
 851 198 l 1,377,-1
576 146 m 1,389,-1
 576 140 l 1,390,-1
 601 140 l 1,391,392
 601 140 601 140 600.5 142.5 c 128,-1,393
 600 145 600 145 600 146 c 2,394,-1
 589 174 l 1,395,-1
 576 146 l 1,389,-1
472 158 m 2,396,397
 475 158 475 158 489 158.5 c 128,-1,398
 503 159 503 159 507 159 c 0,399,400
 513 159 513 159 513 165 c 2,401,402
 513 165 513 165 513.5 167 c 128,-1,403
 514 169 514 169 514 171 c 256,404,405
 514 173 514 173 513.5 175 c 128,-1,406
 513 177 513 177 513 178 c 0,407,408
 513 184 513 184 507 184 c 2,409,-1
 490 184 l 1,410,-1
 472 184 l 1,411,-1
 472 158 l 2,396,397
1129 698 m 1,412,-1
 1129 80 l 1,413,-1
 166 80 l 1,414,-1
 166 698 l 1,415,-1
 1129 698 l 1,412,-1
504 325 m 1,416,-1
 480 319 l 1,417,-1
 480 328 l 1,418,-1
 504 348 l 1,419,-1
 510 356 l 1,420,-1
 522 356 l 1,421,-1
 522 262 l 1,422,-1
 505 262 l 1,423,-1
 504 325 l 1,416,-1
693 327 m 1,424,-1
 669 321 l 1,425,-1
 669 330 l 1,426,-1
 693 349 l 1,427,-1
 700 358 l 1,428,-1
 711 358 l 1,429,-1
 711 263 l 1,430,-1
 694 263 l 1,431,-1
 693 327 l 1,424,-1
811 325 m 1,432,-1
 787 319 l 1,433,-1
 787 328 l 1,434,-1
 811 348 l 1,435,-1
 817 356 l 1,436,-1
 829 356 l 1,437,-1
 829 262 l 1,438,-1
 812 262 l 1,439,-1
 811 325 l 1,432,-1
592 267 m 1,440,-1
 592 278 l 1,441,-1
 604 278 l 1,442,-1
 625 270 l 1,443,-1
 633 283 l 1,444,-1
 633 293 l 1,445,-1
 604 293 l 1,446,-1
 592 311 l 1,447,-1
 592 341 l 1,448,-1
 596 354 l 1,449,-1
 649 354 l 1,450,-1
 651 331 l 1,451,-1
 651 278 l 1,452,-1
 627 260 l 1,453,-1
 609 260 l 1,454,-1
 592 267 l 1,440,-1
609 307 m 1,455,-1
 633 307 l 1,456,-1
 633 341 l 1,457,-1
 609 341 l 1,458,-1
 609 307 l 1,455,-1
263 663 m 1,459,-1
 326 663 l 2,460,461
 329 663 329 663 334.5 658 c 128,-1,462
 340 653 340 653 342 651 c 2,463,-1
 342 644 l 1,464,-1
 342 635 l 1,465,-1
 342 625 l 1,466,-1
 342 620 l 2,467,468
 342 619 342 619 346 614 c 128,-1,469
 350 609 350 609 350 608 c 256,470,471
 350 607 350 607 350.5 602.5 c 128,-1,472
 351 598 351 598 351 596 c 256,473,474
 351 594 351 594 350.5 590.5 c 128,-1,475
 350 587 350 587 350 587 c 2,476,477
 348 585 348 585 342.5 580 c 128,-1,478
 337 575 337 575 335 575 c 2,479,-1
 263 575 l 1,480,-1
 263 663 l 1,459,-1
382 663 m 1,481,-1
 402 663 l 1,482,-1
 402 590 l 1,483,-1
 453 590 l 1,484,-1
 453 575 l 1,485,-1
 382 575 l 1,486,-1
 382 663 l 1,481,-1
476 620 m 256,487,488
 476 624 476 624 476.5 631 c 128,-1,489
 477 638 477 638 477 638 c 2,490,491
 477 640 477 640 480.5 644.5 c 128,-1,492
 484 649 484 649 486 651 c 0,493,494
 486 652 486 652 488.5 654 c 128,-1,495
 491 656 491 656 492 657 c 0,496,497
 496 659 496 659 501.5 661 c 128,-1,498
 507 663 507 663 508 663 c 2,499,-1
 529 663 l 1,500,-1
 548 663 l 2,501,502
 550 663 550 663 556 661 c 128,-1,503
 562 659 562 659 564 657 c 0,504,505
 565 656 565 656 568 654 c 128,-1,506
 571 652 571 652 573 651 c 0,507,508
 575 649 575 649 577.5 644.5 c 128,-1,509
 580 640 580 640 580 638 c 2,510,-1
 580 620 l 1,511,-1
 580 600 l 2,512,513
 580 598 580 598 577.5 593.5 c 128,-1,514
 575 589 575 589 573 587 c 0,515,516
 571 586 571 586 568 584 c 128,-1,517
 565 582 565 582 564 581 c 0,518,519
 562 579 562 579 556 577 c 128,-1,520
 550 575 550 575 548 575 c 2,521,522
 548 575 548 575 540 574.5 c 128,-1,523
 532 574 532 574 529 574 c 0,524,525
 524 574 524 574 517 574.5 c 128,-1,526
 510 575 510 575 508 575 c 0,527,528
 507 575 507 575 501.5 577 c 128,-1,529
 496 579 496 579 492 581 c 0,530,531
 491 582 491 582 488.5 584 c 128,-1,532
 486 586 486 586 486 587 c 0,533,534
 484 589 484 589 480.5 593.5 c 128,-1,535
 477 598 477 598 477 600 c 2,536,537
 477 600 477 600 476.5 608 c 128,-1,538
 476 616 476 616 476 620 c 256,487,488
604 663 m 1,539,-1
 612 663 l 1,540,-1
 620 663 l 2,541,542
 621 663 621 663 624 661 c 128,-1,543
 627 659 627 659 628 657 c 128,-1,544
 629 655 629 655 635.5 647.5 c 128,-1,545
 642 640 642 640 644 638 c 0,546,547
 646 634 646 634 657 622 c 128,-1,548
 668 610 668 610 672 608 c 1,549,-1
 672 663 l 1,550,-1
 691 663 l 1,551,-1
 691 572 l 1,552,553
 674 572 674 572 659 587 c 0,554,555
 657 589 657 589 651.5 595 c 128,-1,556
 646 601 646 601 640 608.5 c 128,-1,557
 634 616 634 616 629.5 622.5 c 128,-1,558
 625 629 625 629 624 632 c 2,559,-1
 624 575 l 1,560,-1
 604 575 l 1,561,-1
 604 663 l 1,539,-1
723 663 m 1,562,-1
 787 663 l 2,563,564
 788 663 788 663 794 658 c 128,-1,565
 800 653 800 653 802 651 c 128,-1,566
 804 649 804 649 807 644.5 c 128,-1,567
 810 640 810 640 810 638 c 2,568,569
 810 638 810 638 810.5 631 c 128,-1,570
 811 624 811 624 811 620 c 256,571,572
 811 616 811 616 810.5 608 c 128,-1,573
 810 600 810 600 810 600 c 2,574,575
 810 598 810 598 807 593.5 c 128,-1,576
 804 589 804 589 802 587 c 0,577,578
 802 583 802 583 795 581 c 0,579,580
 792 579 792 579 786 577 c 128,-1,581
 780 575 780 575 778 575 c 0,582,583
 773 575 773 575 759 574 c 128,-1,584
 745 573 745 573 734 573 c 2,585,-1
 723 573 l 1,586,-1
 723 663 l 1,562,-1
842 663 m 1,587,-1
 922 663 l 1,588,-1
 922 647 l 1,589,-1
 866 647 l 1,590,-1
 866 629 l 1,591,-1
 913 629 l 1,592,-1
 913 611 l 1,593,-1
 866 611 l 1,594,-1
 866 590 l 1,595,-1
 922 590 l 1,596,-1
 922 575 l 1,597,-1
 842 575 l 1,598,-1
 842 663 l 1,587,-1
953 663 m 1,599,-1
 973 663 l 1,600,-1
 973 590 l 1,601,-1
 1024 590 l 1,602,-1
 1024 575 l 1,603,-1
 953 575 l 1,604,-1
 953 663 l 1,599,-1
288 608 m 1,605,-1
 288 593 l 1,606,-1
 326 593 l 1,607,-1
 326 608 l 1,608,-1
 288 608 l 1,605,-1
501 620 m 1,609,-1
 501 608 l 2,610,611
 502 606 502 606 508 600.5 c 128,-1,612
 514 595 514 595 517 593 c 2,613,-1
 529 593 l 1,614,-1
 542 593 l 2,615,616
 544 595 544 595 550 600.5 c 128,-1,617
 556 606 556 606 556 608 c 2,618,619
 556 608 556 608 557 613 c 128,-1,620
 558 618 558 618 558 620 c 256,621,622
 558 622 558 622 557 627 c 128,-1,623
 556 632 556 632 556 632 c 2,624,625
 556 634 556 634 550 638.5 c 128,-1,626
 544 643 544 643 542 644 c 0,627,628
 540 644 540 644 535.5 644.5 c 128,-1,629
 531 645 531 645 529 645 c 0,630,631
 526 645 526 645 522 644.5 c 128,-1,632
 518 644 518 644 517 644 c 0,633,634
 514 643 514 643 508 638.5 c 128,-1,635
 502 634 502 634 501 632 c 2,636,-1
 501 620 l 1,609,-1
747 644 m 2,637,-1
 747 591 l 1,638,639
 751 591 751 591 762.5 592 c 128,-1,640
 774 593 774 593 778 593 c 0,641,642
 781 594 781 594 784 596 c 128,-1,643
 787 598 787 598 787 600 c 2,644,-1
 787 617 l 1,645,-1
 787 632 l 2,646,647
 785 634 785 634 782.5 639 c 128,-1,648
 780 644 780 644 778 644 c 0,649,650
 777 645 777 645 771.5 645.5 c 128,-1,651
 766 646 766 646 762 646 c 0,652,653
 760 646 760 646 754 645.5 c 128,-1,654
 748 645 748 645 747 644 c 2,637,-1
288 644 m 1,655,-1
 288 632 l 1,656,-1
 319 632 l 1,657,-1
 319 644 l 1,658,-1
 288 644 l 1,655,-1
EndSplineSet
EndChar

StartChar: twosuperior
Encoding: 178 178 79
Width: 802
Flags: W
LayerCount: 2
Fore
SplineSet
502 697 m 0,0,1
 547 697 547 697 574.5 724.5 c 128,-1,2
 602 752 602 752 602 797 c 256,3,4
 602 842 602 842 574.5 869.5 c 128,-1,5
 547 897 547 897 502 897 c 256,6,7
 457 897 457 897 429.5 869.5 c 128,-1,8
 402 842 402 842 402 797 c 256,9,10
 402 752 402 752 429.5 725 c 128,-1,11
 457 698 457 698 502 697 c 0,0,1
502 397 m 0,12,13
 547 397 547 397 574.5 424.5 c 128,-1,14
 602 452 602 452 602 497 c 256,15,16
 602 542 602 542 574.5 569.5 c 128,-1,17
 547 597 547 597 502 597 c 256,18,19
 457 597 457 597 429.5 569.5 c 128,-1,20
 402 542 402 542 402 497 c 256,21,22
 402 452 402 452 429.5 425 c 128,-1,23
 457 398 457 398 502 397 c 0,12,13
502 100 m 0,24,25
 547 100 547 100 574.5 127.5 c 128,-1,26
 602 155 602 155 602 200 c 256,27,28
 602 245 602 245 574.5 271 c 128,-1,29
 547 297 547 297 502 297 c 256,30,31
 457 297 457 297 429.5 271 c 128,-1,32
 402 245 402 245 402 200 c 256,33,34
 402 155 402 155 429.5 128 c 128,-1,35
 457 101 457 101 502 100 c 0,24,25
EndSplineSet
EndChar

StartChar: agrave
Encoding: 224 224 80
Width: 802
Flags: W
LayerCount: 2
Fore
SplineSet
204 398 m 0,0,1
 249 398 249 398 276.5 425.5 c 128,-1,2
 304 453 304 453 304 498 c 256,3,4
 304 543 304 543 276.5 570.5 c 128,-1,5
 249 598 249 598 204 598 c 256,6,7
 159 598 159 598 131.5 570.5 c 128,-1,8
 104 543 104 543 104 498 c 256,9,10
 104 453 104 453 131.5 426 c 128,-1,11
 159 399 159 399 204 398 c 0,0,1
204 100 m 0,12,13
 249 100 249 100 276.5 127.5 c 128,-1,14
 304 155 304 155 304 200 c 256,15,16
 304 245 304 245 276.5 271 c 128,-1,17
 249 297 249 297 204 297 c 256,18,19
 159 297 159 297 131.5 271 c 128,-1,20
 104 245 104 245 104 200 c 256,21,22
 104 155 104 155 131.5 128 c 128,-1,23
 159 101 159 101 204 100 c 0,12,13
504 398 m 0,24,25
 549 398 549 398 576.5 425.5 c 128,-1,26
 604 453 604 453 604 498 c 256,27,28
 604 543 604 543 576.5 570.5 c 128,-1,29
 549 598 549 598 504 598 c 256,30,31
 459 598 459 598 431.5 570.5 c 128,-1,32
 404 543 404 543 404 498 c 256,33,34
 404 453 404 453 431.5 426 c 128,-1,35
 459 399 459 399 504 398 c 0,24,25
504 101 m 0,36,37
 549 101 549 101 576.5 128.5 c 128,-1,38
 604 156 604 156 604 201 c 256,39,40
 604 246 604 246 576.5 272 c 128,-1,41
 549 298 549 298 504 298 c 256,42,43
 459 298 459 298 431.5 272 c 128,-1,44
 404 246 404 246 404 201 c 256,45,46
 404 156 404 156 431.5 129 c 128,-1,47
 459 102 459 102 504 101 c 0,36,37
204 698 m 0,48,49
 249 698 249 698 276.5 725.5 c 128,-1,50
 304 753 304 753 304 798 c 256,51,52
 304 843 304 843 276.5 870.5 c 128,-1,53
 249 898 249 898 204 898 c 256,54,55
 159 898 159 898 131.5 870.5 c 128,-1,56
 104 843 104 843 104 798 c 256,57,58
 104 753 104 753 131.5 726 c 128,-1,59
 159 699 159 699 204 698 c 0,48,49
EndSplineSet
EndChar

StartChar: acircumflex
Encoding: 226 226 81
Width: 798
Flags: W
LayerCount: 2
Fore
SplineSet
504 97 m 0,0,1
 549 97 549 97 576.5 124.5 c 128,-1,2
 604 152 604 152 604 197 c 256,3,4
 604 242 604 242 576.5 268 c 128,-1,5
 549 294 549 294 504 294 c 256,6,7
 459 294 459 294 431.5 268 c 128,-1,8
 404 242 404 242 404 197 c 256,9,10
 404 152 404 152 431.5 125 c 128,-1,11
 459 98 459 98 504 97 c 0,0,1
204 694 m 0,12,13
 249 694 249 694 276.5 721.5 c 128,-1,14
 304 749 304 749 304 794 c 256,15,16
 304 839 304 839 276.5 866.5 c 128,-1,17
 249 894 249 894 204 894 c 256,18,19
 159 894 159 894 131.5 866.5 c 128,-1,20
 104 839 104 839 104 794 c 256,21,22
 104 749 104 749 131.5 722 c 128,-1,23
 159 695 159 695 204 694 c 0,12,13
EndSplineSet
EndChar

StartChar: ccedilla
Encoding: 231 231 82
Width: 802
Flags: W
LayerCount: 2
Fore
SplineSet
200 399 m 0,0,1
 245 399 245 399 272.5 426.5 c 128,-1,2
 300 454 300 454 300 499 c 256,3,4
 300 544 300 544 272.5 571.5 c 128,-1,5
 245 599 245 599 200 599 c 256,6,7
 155 599 155 599 127.5 571.5 c 128,-1,8
 100 544 100 544 100 499 c 256,9,10
 100 454 100 454 127.5 427 c 128,-1,11
 155 400 155 400 200 399 c 0,0,1
200 102 m 0,12,13
 245 102 245 102 272.5 129 c 128,-1,14
 300 156 300 156 300 201 c 256,15,16
 300 246 300 246 272.5 272 c 128,-1,17
 245 298 245 298 200 298 c 256,18,19
 155 298 155 298 127.5 272 c 128,-1,20
 100 246 100 246 100 201 c 256,21,22
 100 156 100 156 127.5 129.5 c 128,-1,23
 155 103 155 103 200 102 c 0,12,13
500 699 m 0,24,25
 545 699 545 699 572.5 726.5 c 128,-1,26
 600 754 600 754 600 799 c 256,27,28
 600 844 600 844 572.5 871.5 c 128,-1,29
 545 899 545 899 500 899 c 256,30,31
 455 899 455 899 427.5 871.5 c 128,-1,32
 400 844 400 844 400 799 c 256,33,34
 400 754 400 754 427.5 727 c 128,-1,35
 455 700 455 700 500 699 c 0,24,25
500 103 m 0,36,37
 545 103 545 103 572.5 130 c 128,-1,38
 600 157 600 157 600 202 c 256,39,40
 600 247 600 247 572.5 273 c 128,-1,41
 545 299 545 299 500 299 c 256,42,43
 455 299 455 299 427.5 273 c 128,-1,44
 400 247 400 247 400 202 c 256,45,46
 400 157 400 157 427.5 130.5 c 128,-1,47
 455 104 455 104 500 103 c 0,36,37
200 699 m 0,48,49
 245 699 245 699 272.5 726.5 c 128,-1,50
 300 754 300 754 300 799 c 256,51,52
 300 844 300 844 272.5 871.5 c 128,-1,53
 245 899 245 899 200 899 c 256,54,55
 155 899 155 899 127.5 871.5 c 128,-1,56
 100 844 100 844 100 799 c 256,57,58
 100 754 100 754 127.5 727 c 128,-1,59
 155 700 155 700 200 699 c 0,48,49
EndSplineSet
EndChar

StartChar: egrave
Encoding: 232 232 83
Width: 802
Flags: W
LayerCount: 2
Fore
SplineSet
204 399 m 0,0,1
 249 399 249 399 276.5 426.5 c 128,-1,2
 304 454 304 454 304 499 c 256,3,4
 304 544 304 544 276.5 571.5 c 128,-1,5
 249 599 249 599 204 599 c 256,6,7
 159 599 159 599 131.5 571.5 c 128,-1,8
 104 544 104 544 104 499 c 256,9,10
 104 454 104 454 131.5 427 c 128,-1,11
 159 400 159 400 204 399 c 0,0,1
204 101 m 0,12,13
 249 101 249 101 276.5 128.5 c 128,-1,14
 304 156 304 156 304 201 c 256,15,16
 304 246 304 246 276.5 272 c 128,-1,17
 249 298 249 298 204 298 c 256,18,19
 159 298 159 298 131.5 272 c 128,-1,20
 104 246 104 246 104 201 c 256,21,22
 104 156 104 156 131.5 129 c 128,-1,23
 159 102 159 102 204 101 c 0,12,13
504 699 m 0,24,25
 549 699 549 699 576.5 726.5 c 128,-1,26
 604 754 604 754 604 799 c 256,27,28
 604 844 604 844 576.5 871.5 c 128,-1,29
 549 899 549 899 504 899 c 256,30,31
 459 899 459 899 431.5 871.5 c 128,-1,32
 404 844 404 844 404 799 c 256,33,34
 404 754 404 754 431.5 727 c 128,-1,35
 459 700 459 700 504 699 c 0,24,25
504 102 m 0,36,37
 549 102 549 102 576.5 129.5 c 128,-1,38
 604 157 604 157 604 202 c 256,39,40
 604 247 604 247 576.5 273 c 128,-1,41
 549 299 549 299 504 299 c 256,42,43
 459 299 459 299 431.5 273 c 128,-1,44
 404 247 404 247 404 202 c 256,45,46
 404 157 404 157 431.5 130 c 128,-1,47
 459 103 459 103 504 102 c 0,36,37
EndSplineSet
EndChar

StartChar: eacute
Encoding: 233 233 84
Width: 798
Flags: W
LayerCount: 2
Fore
SplineSet
201 395 m 0,0,1
 246 395 246 395 273.5 422.5 c 128,-1,2
 301 450 301 450 301 495 c 256,3,4
 301 540 301 540 273.5 567.5 c 128,-1,5
 246 595 246 595 201 595 c 256,6,7
 156 595 156 595 128.5 567.5 c 128,-1,8
 101 540 101 540 101 495 c 256,9,10
 101 450 101 450 128.5 423 c 128,-1,11
 156 396 156 396 201 395 c 0,0,1
201 97 m 0,12,13
 246 97 246 97 273.5 124.5 c 128,-1,14
 301 152 301 152 301 197 c 256,15,16
 301 242 301 242 273.5 268 c 128,-1,17
 246 294 246 294 201 294 c 256,18,19
 156 294 156 294 128.5 268 c 128,-1,20
 101 242 101 242 101 197 c 256,21,22
 101 152 101 152 128.5 125 c 128,-1,23
 156 98 156 98 201 97 c 0,12,13
501 695 m 0,24,25
 546 695 546 695 573.5 722.5 c 128,-1,26
 601 750 601 750 601 795 c 256,27,28
 601 840 601 840 573.5 867.5 c 128,-1,29
 546 895 546 895 501 895 c 256,30,31
 456 895 456 895 428.5 867.5 c 128,-1,32
 401 840 401 840 401 795 c 256,33,34
 401 750 401 750 428.5 723 c 128,-1,35
 456 696 456 696 501 695 c 0,24,25
501 395 m 0,36,37
 546 395 546 395 573.5 422.5 c 128,-1,38
 601 450 601 450 601 495 c 256,39,40
 601 540 601 540 573.5 567.5 c 128,-1,41
 546 595 546 595 501 595 c 256,42,43
 456 595 456 595 428.5 567.5 c 128,-1,44
 401 540 401 540 401 495 c 256,45,46
 401 450 401 450 428.5 423 c 128,-1,47
 456 396 456 396 501 395 c 0,36,37
501 98 m 0,48,49
 546 98 546 98 573.5 125.5 c 128,-1,50
 601 153 601 153 601 198 c 256,51,52
 601 243 601 243 573.5 269 c 128,-1,53
 546 295 546 295 501 295 c 256,54,55
 456 295 456 295 428.5 269 c 128,-1,56
 401 243 401 243 401 198 c 256,57,58
 401 153 401 153 428.5 126 c 128,-1,59
 456 99 456 99 501 98 c 0,48,49
201 695 m 0,60,61
 246 695 246 695 273.5 722.5 c 128,-1,62
 301 750 301 750 301 795 c 256,63,64
 301 840 301 840 273.5 867.5 c 128,-1,65
 246 895 246 895 201 895 c 256,66,67
 156 895 156 895 128.5 867.5 c 128,-1,68
 101 840 101 840 101 795 c 256,69,70
 101 750 101 750 128.5 723 c 128,-1,71
 156 696 156 696 201 695 c 0,60,61
EndSplineSet
EndChar

StartChar: ecircumflex
Encoding: 234 234 85
Width: 802
Flags: W
LayerCount: 2
Fore
SplineSet
201 401 m 0,0,1
 246 401 246 401 273.5 428.5 c 128,-1,2
 301 456 301 456 301 501 c 256,3,4
 301 546 301 546 273.5 573.5 c 128,-1,5
 246 601 246 601 201 601 c 256,6,7
 156 601 156 601 128.5 573.5 c 128,-1,8
 101 546 101 546 101 501 c 256,9,10
 101 456 101 456 128.5 429 c 128,-1,11
 156 402 156 402 201 401 c 0,0,1
501 104 m 0,12,13
 546 104 546 104 573.5 131.5 c 128,-1,14
 601 159 601 159 601 204 c 256,15,16
 601 249 601 249 573.5 275 c 128,-1,17
 546 301 546 301 501 301 c 256,18,19
 456 301 456 301 428.5 275 c 128,-1,20
 401 249 401 249 401 204 c 256,21,22
 401 159 401 159 428.5 132 c 128,-1,23
 456 105 456 105 501 104 c 0,12,13
201 701 m 0,24,25
 246 701 246 701 273.5 728.5 c 128,-1,26
 301 756 301 756 301 801 c 256,27,28
 301 846 301 846 273.5 873.5 c 128,-1,29
 246 901 246 901 201 901 c 256,30,31
 156 901 156 901 128.5 873.5 c 128,-1,32
 101 846 101 846 101 801 c 256,33,34
 101 756 101 756 128.5 729 c 128,-1,35
 156 702 156 702 201 701 c 0,24,25
EndSplineSet
EndChar

StartChar: edieresis
Encoding: 235 235 86
Width: 802
Flags: W
LayerCount: 2
Fore
SplineSet
197 397 m 0,0,1
 242 397 242 397 269.5 424.5 c 128,-1,2
 297 452 297 452 297 497 c 256,3,4
 297 542 297 542 269.5 569.5 c 128,-1,5
 242 597 242 597 197 597 c 256,6,7
 152 597 152 597 124.5 569.5 c 128,-1,8
 97 542 97 542 97 497 c 256,9,10
 97 452 97 452 124.5 425 c 128,-1,11
 152 398 152 398 197 397 c 0,0,1
497 697 m 0,12,13
 542 697 542 697 569.5 724.5 c 128,-1,14
 597 752 597 752 597 797 c 256,15,16
 597 842 597 842 569.5 869.5 c 128,-1,17
 542 897 542 897 497 897 c 256,18,19
 452 897 452 897 424.5 869.5 c 128,-1,20
 397 842 397 842 397 797 c 256,21,22
 397 752 397 752 424.5 725 c 128,-1,23
 452 698 452 698 497 697 c 0,12,13
497 100 m 0,24,25
 542 100 542 100 569.5 127.5 c 128,-1,26
 597 155 597 155 597 200 c 256,27,28
 597 245 597 245 569.5 271 c 128,-1,29
 542 297 542 297 497 297 c 256,30,31
 452 297 452 297 424.5 271 c 128,-1,32
 397 245 397 245 397 200 c 256,33,34
 397 155 397 155 424.5 128 c 128,-1,35
 452 101 452 101 497 100 c 0,24,25
197 697 m 0,36,37
 242 697 242 697 269.5 724.5 c 128,-1,38
 297 752 297 752 297 797 c 256,39,40
 297 842 297 842 269.5 869.5 c 128,-1,41
 242 897 242 897 197 897 c 256,42,43
 152 897 152 897 124.5 869.5 c 128,-1,44
 97 842 97 842 97 797 c 256,45,46
 97 752 97 752 124.5 725 c 128,-1,47
 152 698 152 698 197 697 c 0,36,37
EndSplineSet
EndChar

StartChar: icircumflex
Encoding: 238 238 87
Width: 802
Flags: W
LayerCount: 2
Fore
SplineSet
497 698 m 0,0,1
 542 698 542 698 569.5 725.5 c 128,-1,2
 597 753 597 753 597 798 c 256,3,4
 597 843 597 843 569.5 870.5 c 128,-1,5
 542 898 542 898 497 898 c 256,6,7
 452 898 452 898 424.5 870.5 c 128,-1,8
 397 843 397 843 397 798 c 256,9,10
 397 753 397 753 424.5 726 c 128,-1,11
 452 699 452 699 497 698 c 0,0,1
497 101 m 0,12,13
 542 101 542 101 569.5 128.5 c 128,-1,14
 597 156 597 156 597 201 c 256,15,16
 597 246 597 246 569.5 272 c 128,-1,17
 542 298 542 298 497 298 c 256,18,19
 452 298 452 298 424.5 272 c 128,-1,20
 397 246 397 246 397 201 c 256,21,22
 397 156 397 156 424.5 129 c 128,-1,23
 452 102 452 102 497 101 c 0,12,13
197 698 m 0,24,25
 242 698 242 698 269.5 725.5 c 128,-1,26
 297 753 297 753 297 798 c 256,27,28
 297 843 297 843 269.5 870.5 c 128,-1,29
 242 898 242 898 197 898 c 256,30,31
 152 898 152 898 124.5 870.5 c 128,-1,32
 97 843 97 843 97 798 c 256,33,34
 97 753 97 753 124.5 726 c 128,-1,35
 152 699 152 699 197 698 c 0,24,25
EndSplineSet
EndChar

StartChar: idieresis
Encoding: 239 239 88
Width: 802
Flags: W
LayerCount: 2
Fore
SplineSet
200 396 m 0,0,1
 245 396 245 396 272.5 423.5 c 128,-1,2
 300 451 300 451 300 496 c 256,3,4
 300 541 300 541 272.5 568.5 c 128,-1,5
 245 596 245 596 200 596 c 256,6,7
 155 596 155 596 127.5 568.5 c 128,-1,8
 100 541 100 541 100 496 c 256,9,10
 100 451 100 451 127.5 424 c 128,-1,11
 155 397 155 397 200 396 c 0,0,1
500 696 m 0,12,13
 545 696 545 696 572.5 723.5 c 128,-1,14
 600 751 600 751 600 796 c 256,15,16
 600 841 600 841 572.5 868.5 c 128,-1,17
 545 896 545 896 500 896 c 256,18,19
 455 896 455 896 427.5 868.5 c 128,-1,20
 400 841 400 841 400 796 c 256,21,22
 400 751 400 751 427.5 724 c 128,-1,23
 455 697 455 697 500 696 c 0,12,13
500 396 m 0,24,25
 545 396 545 396 572.5 423.5 c 128,-1,26
 600 451 600 451 600 496 c 256,27,28
 600 541 600 541 572.5 568.5 c 128,-1,29
 545 596 545 596 500 596 c 256,30,31
 455 596 455 596 427.5 568.5 c 128,-1,32
 400 541 400 541 400 496 c 256,33,34
 400 451 400 451 427.5 424 c 128,-1,35
 455 397 455 397 500 396 c 0,24,25
500 100 m 0,36,37
 545 100 545 100 572.5 127 c 128,-1,38
 600 154 600 154 600 199 c 256,39,40
 600 244 600 244 572.5 270 c 128,-1,41
 545 296 545 296 500 296 c 256,42,43
 455 296 455 296 427.5 270 c 128,-1,44
 400 244 400 244 400 199 c 256,45,46
 400 154 400 154 427.5 127.5 c 128,-1,47
 455 101 455 101 500 100 c 0,36,37
200 696 m 0,48,49
 245 696 245 696 272.5 723.5 c 128,-1,50
 300 751 300 751 300 796 c 256,51,52
 300 841 300 841 272.5 868.5 c 128,-1,53
 245 896 245 896 200 896 c 256,54,55
 155 896 155 896 127.5 868.5 c 128,-1,56
 100 841 100 841 100 796 c 256,57,58
 100 751 100 751 127.5 724 c 128,-1,59
 155 697 155 697 200 696 c 0,48,49
EndSplineSet
EndChar

StartChar: ocircumflex
Encoding: 244 244 89
Width: 802
Flags: W
LayerCount: 2
Fore
SplineSet
501 695 m 0,0,1
 546 695 546 695 573.5 722.5 c 128,-1,2
 601 750 601 750 601 795 c 256,3,4
 601 840 601 840 573.5 867.5 c 128,-1,5
 546 895 546 895 501 895 c 256,6,7
 456 895 456 895 428.5 867.5 c 128,-1,8
 401 840 401 840 401 795 c 256,9,10
 401 750 401 750 428.5 723 c 128,-1,11
 456 696 456 696 501 695 c 0,0,1
501 395 m 0,12,13
 546 395 546 395 573.5 422.5 c 128,-1,14
 601 450 601 450 601 495 c 256,15,16
 601 540 601 540 573.5 567.5 c 128,-1,17
 546 595 546 595 501 595 c 256,18,19
 456 595 456 595 428.5 567.5 c 128,-1,20
 401 540 401 540 401 495 c 256,21,22
 401 450 401 450 428.5 423 c 128,-1,23
 456 396 456 396 501 395 c 0,12,13
501 99 m 0,24,25
 546 99 546 99 573.5 126 c 128,-1,26
 601 153 601 153 601 198 c 256,27,28
 601 243 601 243 573.5 269 c 128,-1,29
 546 295 546 295 501 295 c 256,30,31
 456 295 456 295 428.5 269 c 128,-1,32
 401 243 401 243 401 198 c 256,33,34
 401 153 401 153 428.5 126.5 c 128,-1,35
 456 100 456 100 501 99 c 0,24,25
201 695 m 0,36,37
 246 695 246 695 273.5 722.5 c 128,-1,38
 301 750 301 750 301 795 c 256,39,40
 301 840 301 840 273.5 867.5 c 128,-1,41
 246 895 246 895 201 895 c 256,42,43
 156 895 156 895 128.5 867.5 c 128,-1,44
 101 840 101 840 101 795 c 256,45,46
 101 750 101 750 128.5 723 c 128,-1,47
 156 696 156 696 201 695 c 0,36,37
EndSplineSet
EndChar

StartChar: ugrave
Encoding: 249 249 90
Width: 802
Flags: W
LayerCount: 2
Fore
SplineSet
197 398 m 0,0,1
 242 398 242 398 269.5 425.5 c 128,-1,2
 297 453 297 453 297 498 c 256,3,4
 297 543 297 543 269.5 570.5 c 128,-1,5
 242 598 242 598 197 598 c 256,6,7
 152 598 152 598 124.5 570.5 c 128,-1,8
 97 543 97 543 97 498 c 256,9,10
 97 453 97 453 124.5 426 c 128,-1,11
 152 399 152 399 197 398 c 0,0,1
197 101 m 0,12,13
 242 101 242 101 269.5 128 c 128,-1,14
 297 155 297 155 297 200 c 256,15,16
 297 245 297 245 269.5 271 c 128,-1,17
 242 297 242 297 197 297 c 256,18,19
 152 297 152 297 124.5 271 c 128,-1,20
 97 245 97 245 97 200 c 256,21,22
 97 155 97 155 124.5 128.5 c 128,-1,23
 152 102 152 102 197 101 c 0,12,13
497 698 m 0,24,25
 542 698 542 698 569.5 725.5 c 128,-1,26
 597 753 597 753 597 798 c 256,27,28
 597 843 597 843 569.5 870.5 c 128,-1,29
 542 898 542 898 497 898 c 256,30,31
 452 898 452 898 424.5 870.5 c 128,-1,32
 397 843 397 843 397 798 c 256,33,34
 397 753 397 753 424.5 726 c 128,-1,35
 452 699 452 699 497 698 c 0,24,25
497 398 m 0,36,37
 542 398 542 398 569.5 425.5 c 128,-1,38
 597 453 597 453 597 498 c 256,39,40
 597 543 597 543 569.5 570.5 c 128,-1,41
 542 598 542 598 497 598 c 256,42,43
 452 598 452 598 424.5 570.5 c 128,-1,44
 397 543 397 543 397 498 c 256,45,46
 397 453 397 453 424.5 426 c 128,-1,47
 452 399 452 399 497 398 c 0,36,37
497 102 m 0,48,49
 542 102 542 102 569.5 129 c 128,-1,50
 597 156 597 156 597 201 c 256,51,52
 597 246 597 246 569.5 272 c 128,-1,53
 542 298 542 298 497 298 c 256,54,55
 452 298 452 298 424.5 272 c 128,-1,56
 397 246 397 246 397 201 c 256,57,58
 397 156 397 156 424.5 129.5 c 128,-1,59
 452 103 452 103 497 102 c 0,48,49
EndSplineSet
EndChar

StartChar: ucircumflex
Encoding: 251 251 91
Width: 802
Flags: W
LayerCount: 2
Fore
SplineSet
497 399 m 0,0,1
 542 399 542 399 569.5 426.5 c 128,-1,2
 597 454 597 454 597 499 c 256,3,4
 597 544 597 544 569.5 571.5 c 128,-1,5
 542 599 542 599 497 599 c 256,6,7
 452 599 452 599 424.5 571.5 c 128,-1,8
 397 544 397 544 397 499 c 256,9,10
 397 454 397 454 424.5 427 c 128,-1,11
 452 400 452 400 497 399 c 0,0,1
497 102 m 0,12,13
 542 102 542 102 569.5 129.5 c 128,-1,14
 597 157 597 157 597 202 c 256,15,16
 597 247 597 247 569.5 273 c 128,-1,17
 542 299 542 299 497 299 c 256,18,19
 452 299 452 299 424.5 273 c 128,-1,20
 397 247 397 247 397 202 c 256,21,22
 397 157 397 157 424.5 130 c 128,-1,23
 452 103 452 103 497 102 c 0,12,13
197 699 m 0,24,25
 242 699 242 699 269.5 726.5 c 128,-1,26
 297 754 297 754 297 799 c 256,27,28
 297 844 297 844 269.5 871.5 c 128,-1,29
 242 899 242 899 197 899 c 256,30,31
 152 899 152 899 124.5 871.5 c 128,-1,32
 97 844 97 844 97 799 c 256,33,34
 97 754 97 754 124.5 727 c 128,-1,35
 152 700 152 700 197 699 c 0,24,25
EndSplineSet
EndChar

StartChar: udieresis
Encoding: 252 252 92
Width: 802
Flags: W
LayerCount: 2
Fore
SplineSet
204 395 m 0,0,1
 249 395 249 395 276.5 422.5 c 128,-1,2
 304 450 304 450 304 495 c 256,3,4
 304 540 304 540 276.5 567.5 c 128,-1,5
 249 595 249 595 204 595 c 256,6,7
 159 595 159 595 131.5 567.5 c 128,-1,8
 104 540 104 540 104 495 c 256,9,10
 104 450 104 450 131.5 423 c 128,-1,11
 159 396 159 396 204 395 c 0,0,1
504 395 m 0,12,13
 549 395 549 395 576.5 422.5 c 128,-1,14
 604 450 604 450 604 495 c 256,15,16
 604 540 604 540 576.5 567.5 c 128,-1,17
 549 595 549 595 504 595 c 256,18,19
 459 595 459 595 431.5 567.5 c 128,-1,20
 404 540 404 540 404 495 c 256,21,22
 404 450 404 450 431.5 423 c 128,-1,23
 459 396 459 396 504 395 c 0,12,13
504 99 m 0,24,25
 549 99 549 99 576.5 126 c 128,-1,26
 604 153 604 153 604 198 c 256,27,28
 604 243 604 243 576.5 269 c 128,-1,29
 549 295 549 295 504 295 c 256,30,31
 459 295 459 295 431.5 269 c 128,-1,32
 404 243 404 243 404 198 c 256,33,34
 404 153 404 153 431.5 126.5 c 128,-1,35
 459 100 459 100 504 99 c 0,24,25
204 695 m 0,36,37
 249 695 249 695 276.5 722.5 c 128,-1,38
 304 750 304 750 304 795 c 256,39,40
 304 840 304 840 276.5 867.5 c 128,-1,41
 249 895 249 895 204 895 c 256,42,43
 159 895 159 895 131.5 867.5 c 128,-1,44
 104 840 104 840 104 795 c 256,45,46
 104 750 104 750 131.5 723 c 128,-1,47
 159 696 159 696 204 695 c 0,36,37
EndSplineSet
EndChar

